<?xml version="1.0" encoding="utf-8"?>
<!-- Generator: Adobe Illustrator 16.0.0, SVG Export Plug-In . SVG Version: 6.00 Build 0)  -->
<!DOCTYPE svg PUBLIC "-//W3C//DTD SVG 1.1//EN" "http://www.w3.org/Graphics/SVG/1.1/DTD/svg11.dtd">
<svg version="1.1" id="Layer_1" xmlns="http://www.w3.org/2000/svg" xmlns:xlink="http://www.w3.org/1999/xlink" x="0px" y="0px"
	 width="17px" height="17px" viewBox="6.5 6.5 17 17" enable-background="new 6.5 6.5 17 17" xml:space="preserve">
<g id="chat">
	<path fill="#FFFFFF" d="M19.2,12.852v-2.117c0-2.923-2.114-4.234-4.231-4.234h-4.236C8.617,6.5,6.5,7.625,6.5,10.734
		c0,3.043,2.117,4.234,4.232,4.234h0.492c-0.299,0.582-0.492,1.273-0.492,2.117v2.117c0,2.339,1.898,4.234,4.236,4.234
		c0-1.171,0.949-2.117,2.117-2.117H19.2c2.12,0,4.237-1.191,4.237-4.234C23.438,13.977,21.32,12.852,19.2,12.852z M10.732,12.852
		c-2.115,0-2.115-1.594-2.115-2.117c0-0.634,0-2.117,2.115-2.117h4.236c0.791,0,2.117,0.275,2.117,2.117v2.117
		c0,0.692-0.333,1.308-0.852,1.695c-0.773-1.029-2.002-1.695-3.383-1.695H10.732z M19.2,19.203h-2.114
		c-1.383,0-2.613,0.666-3.386,1.693c-0.515-0.387-0.848-1.003-0.848-1.693v-2.117c0-0.969,0.482-1.557,0.961-1.859
		c0.679,0.354,1.156,1.043,1.156,1.859c1.565,0,2.915-0.857,3.65-2.12c-0.003,0.001-0.003,0.001-0.003,0.001l0.584,0.001
		c2.12,0,2.12,1.483,2.12,2.117C21.32,17.611,21.32,19.203,19.2,19.203z M19.055,13.908c-0.016,0.048-0.031,0.096-0.046,0.143
		C19.023,14.003,19.042,13.956,19.055,13.908z"/>
</g>
</svg>
