<?xml version="1.0" encoding="utf-8"?>
<!-- Generator: Adobe Illustrator 16.0.0, SVG Export Plug-In . SVG Version: 6.00 Build 0)  -->
<!DOCTYPE svg PUBLIC "-//W3C//DTD SVG 1.1//EN" "http://www.w3.org/Graphics/SVG/1.1/DTD/svg11.dtd">
<svg version="1.1" id="Layer_1" xmlns="http://www.w3.org/2000/svg" xmlns:xlink="http://www.w3.org/1999/xlink" x="0px" y="0px"
	 width="17px" height="17px" viewBox="0 0 17 17" enable-background="new 0 0 17 17" xml:space="preserve">
<g id="clock">
	<g>
		<path fill="#FFFFFF" d="M8.531,2.117c3.504,0,6.352,2.849,6.352,6.352c0,3.504-2.848,6.352-6.352,6.352
			c-3.503,0-6.352-2.848-6.352-6.352C2.18,4.966,5.028,2.117,8.531,2.117 M8.531,0C3.854,0,0.063,3.792,0.063,8.469
			c0,4.678,3.792,8.469,8.469,8.469c4.678,0,8.469-3.791,8.469-8.469C17,3.792,13.209,0,8.531,0L8.531,0z"/>
		<path fill="#FFFFFF" d="M11.4,9.834L9.59,8.02V4.234H7.461v4.229c0,0.318,0.146,0.593,0.367,0.79l2.075,2.077L11.4,9.834z"/>
	</g>
</g>
</svg>
