<?xml version="1.0" encoding="utf-8"?>
<!-- Generator: Adobe Illustrator 16.0.0, SVG Export Plug-In . SVG Version: 6.00 Build 0)  -->
<!DOCTYPE svg PUBLIC "-//W3C//DTD SVG 1.1//EN" "http://www.w3.org/Graphics/SVG/1.1/DTD/svg11.dtd">
<svg version="1.1" id="Layer_1" xmlns="http://www.w3.org/2000/svg" xmlns:xlink="http://www.w3.org/1999/xlink" x="0px" y="0px"
	 width="30px" height="30px" viewBox="-3.5 -3.5 30 30" enable-background="new -3.5 -3.5 30 30" xml:space="preserve">
<g>
	<path d="M12.244,11.437c-0.141-0.297-0.285-0.564-0.393-0.842c-0.104-0.272-0.248-0.292-0.515-0.217
		c-1.938,0.534-3.918,0.823-5.928,0.899c-0.39,0.016-0.779,0.038-1.2,0.062c-0.02,1.887,0.59,3.485,1.821,4.895
		C7.583,13.949,9.574,12.279,12.244,11.437z"/>
	<path d="M8.402,5.017C6.28,6.08,4.954,7.682,4.362,9.985c2.295-0.014,4.485-0.31,6.735-0.878C10.175,7.705,9.294,6.369,8.402,5.017
		z"/>
	<path d="M7.042,17.117c2.102,1.787,5.513,1.883,7.275,0.916c-0.347-1.82-0.854-3.596-1.546-5.34
		C10.351,13.57,8.361,14.908,7.042,17.117z"/>
	<path d="M16.314,6.11c-1.93-1.544-4.053-2.057-6.427-1.587c0.904,1.388,1.788,2.741,2.693,4.13
		C14.012,8.096,15.308,7.352,16.314,6.11z"/>
	<path d="M14.287,12.348c0.474,1.688,0.935,3.34,1.406,5.016c1.62-1.166,2.645-2.703,3.009-4.705
		C17.205,12.252,15.738,12.137,14.287,12.348z"/>
	<path d="M11.499-3.5C3.215-3.5-3.5,3.215-3.5,11.499c0,8.285,6.716,15.001,14.999,15.001c8.285,0,15.001-6.717,15.001-15.001
		C26.5,3.214,19.784-3.5,11.499-3.5z M11.499,20.121c-4.758,0-8.618-3.863-8.618-8.621c0-4.76,3.86-8.62,8.618-8.62
		c4.76,0,8.619,3.86,8.619,8.62C20.118,16.258,16.259,20.121,11.499,20.121z"/>
	<path d="M13.137,9.805c0.217,0.467,0.415,0.907,0.56,1.217c1.752,0.085,3.413,0.163,5.094,0.243
		c-0.045-1.548-0.577-2.972-1.619-4.273C16.067,8.3,14.677,9.138,13.137,9.805z"/>
</g>
</svg>
