<?xml version="1.0" encoding="utf-8"?>
<!-- Generator: Adobe Illustrator 16.0.0, SVG Export Plug-In . SVG Version: 6.00 Build 0)  -->
<!DOCTYPE svg PUBLIC "-//W3C//DTD SVG 1.1//EN" "http://www.w3.org/Graphics/SVG/1.1/DTD/svg11.dtd">
<svg version="1.1" id="Layer_1" xmlns="http://www.w3.org/2000/svg" xmlns:xlink="http://www.w3.org/1999/xlink" x="0px" y="0px"
	 width="30px" height="30px" viewBox="5 5 30 30" enable-background="new 5 5 30 30" xml:space="preserve">
<g>
	<path fill-rule="evenodd" clip-rule="evenodd" fill="#FFFFFF" d="M20.26,20.039c-0.14-0.293-0.282-0.554-0.388-0.829
		c-0.102-0.27-0.246-0.287-0.507-0.215c-1.913,0.528-3.864,0.811-5.847,0.888c-0.384,0.015-0.768,0.038-1.183,0.06
		c-0.019,1.861,0.583,3.438,1.795,4.829C15.661,22.515,17.626,20.868,20.26,20.039z"/>
	<path fill-rule="evenodd" clip-rule="evenodd" fill="#FFFFFF" d="M16.469,13.708c-2.093,1.049-3.4,2.628-3.984,4.899
		c2.263-0.013,4.424-0.305,6.642-0.865C18.218,16.36,17.349,15.042,16.469,13.708z"/>
	<path fill-rule="evenodd" clip-rule="evenodd" fill="#FFFFFF" d="M15.128,25.641c2.073,1.763,5.437,1.856,7.175,0.904
		c-0.34-1.795-0.841-3.547-1.524-5.266C18.391,22.143,16.429,23.462,15.128,25.641z"/>
	<path fill-rule="evenodd" clip-rule="evenodd" fill="#FFFFFF" d="M24.273,14.786c-1.903-1.523-3.997-2.028-6.339-1.564
		c0.892,1.369,1.764,2.703,2.657,4.073C22.001,16.744,23.279,16.011,24.273,14.786z"/>
	<path fill-rule="evenodd" clip-rule="evenodd" fill="#FFFFFF" d="M22.274,20.938c0.466,1.663,0.922,3.293,1.385,4.946
		c1.599-1.15,2.609-2.665,2.966-4.64C25.15,20.842,23.704,20.731,22.274,20.938z"/>
	<path fill-rule="evenodd" clip-rule="evenodd" fill="#FFFFFF" d="M19.524,5.308c-8.17,0-14.792,6.623-14.792,14.792
		s6.623,14.793,14.792,14.793s14.792-6.623,14.792-14.793S27.694,5.308,19.524,5.308z M19.524,28.601c-4.694,0-8.5-3.806-8.5-8.5
		s3.806-8.5,8.5-8.5s8.5,3.806,8.5,8.5S24.219,28.601,19.524,28.601z"/>
	<path fill-rule="evenodd" clip-rule="evenodd" fill="#FFFFFF" d="M21.138,18.429c0.213,0.462,0.41,0.895,0.552,1.201
		c1.728,0.084,3.366,0.16,5.024,0.24c-0.045-1.527-0.569-2.933-1.598-4.216C24.029,16.946,22.656,17.771,21.138,18.429z"/>
</g>
</svg>
