<?xml version="1.0" encoding="utf-8"?>
<!-- Generator: Adobe Illustrator 16.0.0, SVG Export Plug-In . SVG Version: 6.00 Build 0)  -->
<!DOCTYPE svg PUBLIC "-//W3C//DTD SVG 1.1//EN" "http://www.w3.org/Graphics/SVG/1.1/DTD/svg11.dtd">
<svg version="1.1" id="Layer_1" xmlns="http://www.w3.org/2000/svg" xmlns:xlink="http://www.w3.org/1999/xlink" x="0px" y="0px"
	 width="30px" height="30px" viewBox="0 0 30 30" enable-background="new 0 0 30 30" xml:space="preserve">
<path fill="#FFFFFF" enable-background="new    " d="M15.207,0.416c-8.168,0-14.792,6.622-14.792,14.791S7.039,30,15.207,30
	C23.376,30,30,23.376,30,15.207S23.379,0.416,15.207,0.416z M18.263,10.084h-1.496c-1.24,0-1.024,1.034-1.024,1.034v1.229h2.536
	v3.016h-2.536v8.031h-3.494v-8.031h-1.521l0.025-3.016h1.498c0,0,0-0.771,0-1.591c0-3.834,3.685-3.448,3.685-3.448h2.355
	L18.263,10.084z"/>
</svg>
