<?xml version="1.0" encoding="utf-8"?>
<!-- Generator: Adobe Illustrator 16.0.0, SVG Export Plug-In . SVG Version: 6.00 Build 0)  -->
<!DOCTYPE svg PUBLIC "-//W3C//DTD SVG 1.1//EN" "http://www.w3.org/Graphics/SVG/1.1/DTD/svg11.dtd">
<svg version="1.1" id="Layer_1" xmlns="http://www.w3.org/2000/svg" xmlns:xlink="http://www.w3.org/1999/xlink" x="0px" y="0px"
	 width="30px" height="30px" viewBox="0 0 30 30" enable-background="new 0 0 30 30" xml:space="preserve">
<path d="M15.207,0.208c-8.283,0-15,6.715-15,15c0,8.283,6.717,15.001,15,15.001s15.001-6.718,15.001-15.001
	C30.208,6.923,23.493,0.208,15.207,0.208z M15.752,11.061v1.247h2.57v3.058h-2.57v8.145h-3.543v-8.145h-1.542l0.025-3.058h1.519
	c0,0,0-0.782,0-1.614c0-3.888,3.737-3.497,3.737-3.497h2.388l-0.028,2.815h-1.518C15.532,10.012,15.752,11.061,15.752,11.061z"/>
</svg>
