<?xml version="1.0" encoding="utf-8"?>
<!-- Generator: Adobe Illustrator 16.0.0, SVG Export Plug-In . SVG Version: 6.00 Build 0)  -->
<!DOCTYPE svg PUBLIC "-//W3C//DTD SVG 1.1//EN" "http://www.w3.org/Graphics/SVG/1.1/DTD/svg11.dtd">
<svg version="1.1" id="Layer_1" xmlns="http://www.w3.org/2000/svg" xmlns:xlink="http://www.w3.org/1999/xlink" x="0px" y="0px"
	 width="23px" height="23px" viewBox="3.5 3.5 23 23" enable-background="new 3.5 3.5 23 23" xml:space="preserve">
<path d="M14.999,3.5c-6.352,0-11.5,5.149-11.5,11.5c0,6.352,5.148,11.5,11.5,11.5s11.5-5.148,11.5-11.5
	C26.499,8.649,21.351,3.5,14.999,3.5z M10.958,18.457C9.048,18.457,7.5,16.91,7.5,15c0-1.91,1.548-3.458,3.458-3.458
	c1.908,0,3.457,1.547,3.457,3.458C14.415,16.91,12.866,18.457,10.958,18.457z M19.041,18.457c-1.91,0-3.458-1.547-3.458-3.457
	c0-1.91,1.548-3.458,3.458-3.458c1.908,0,3.457,1.547,3.457,3.458C22.498,16.91,20.949,18.457,19.041,18.457z"/>
</svg>
