<?xml version="1.0" encoding="utf-8"?>
<!-- Generator: Adobe Illustrator 14.0.0, SVG Export Plug-In . SVG Version: 6.00 Build 43363)  -->
<!DOCTYPE svg PUBLIC "-//W3C//DTD SVG 1.1//EN" "http://www.w3.org/Graphics/SVG/1.1/DTD/svg11.dtd">
<svg version="1.1" id="Layer_1" xmlns="http://www.w3.org/2000/svg" xmlns:xlink="http://www.w3.org/1999/xlink" x="0px" y="0px"
	 width="29.99px" height="29.99px" viewBox="0 0 29.99 29.99" enable-background="new 0 0 29.99 29.99" xml:space="preserve">
<g>
	<path d="M13.337,18.081c-0.1-0.07-0.208-0.142-0.315-0.22c-0.321-0.098-0.66-0.15-1.008-0.152H11.97
		c-1.601,0-3.004,0.971-3.004,2.074c0,1.199,1.2,2.141,2.735,2.141c2.024,0,3.049-0.693,3.049-2.07c0-0.129-0.016-0.266-0.047-0.4
		C14.568,18.915,14.077,18.581,13.337,18.081z"/>
	<path d="M14.997-0.002C6.714-0.002,0,6.712,0,14.992C0,23.275,6.714,29.99,14.997,29.99c8.281,0,14.994-6.715,14.994-14.998
		C29.991,6.71,23.274-0.002,14.997-0.002z"/>
</g>
<g id="XMLID_1_">
	<g>
		<path fill="#FFFFFF" d="M14.687,11.664c1.218,0,1.83-0.7,1.83-2.1c0-0.59-0.141-1.09-0.42-1.51c-0.342-0.46-0.81-0.69-1.41-0.69
			c-1.262,0-1.901,0.74-1.901,2.23C12.786,10.974,13.425,11.664,14.687,11.664z M15.107,22.744c1.539,0,2.308-0.54,2.308-1.62
			c0-1.01-0.84-1.529-2.519-1.529c-1.619,0-2.44,0.529-2.44,1.591C12.456,22.234,13.347,22.744,15.107,22.744z M16.235,17.164
			c2.859,0.44,4.291,1.641,4.291,3.57c0,3.109-1.852,4.66-5.56,4.66c-1.52,0-2.77-0.28-3.75-0.812
			c-1.239-0.68-1.859-1.76-1.859-3.22c0-1.68,0.93-2.83,2.79-3.45v-0.069c-0.681-0.421-1.021-1.061-1.021-1.921
			c0-1.13,0.33-1.819,0.971-2.1v-0.06c-0.641-0.221-1.211-0.721-1.721-1.511c-0.56-0.84-0.84-1.739-0.84-2.699
			c0-1.44,0.51-2.65,1.54-3.601c0.98-0.91,2.15-1.359,3.521-1.359c0.978,0,1.888,0.239,2.728,0.72l-0.029,0.01
			c0.971,0,2.08-0.24,3.34-0.72v3.1c-0.279,0.101-0.68,0.21-1.199,0.33c0.16,0.46,0.25,0.89,0.25,1.29c0,1.28-0.391,2.4-1.16,3.35
			c-0.771,0.95-1.771,1.511-2.99,1.7c-0.8,0.11-1.201,0.55-1.201,1.29c0,0.26,0.131,0.521,0.391,0.78
			C15.066,16.824,15.565,17.064,16.235,17.164z"/>
	</g>
</g>
</svg>
