<?xml version="1.0" encoding="utf-8"?>
<!-- Generator: Adobe Illustrator 14.0.0, SVG Export Plug-In . SVG Version: 6.00 Build 43363)  -->
<!DOCTYPE svg PUBLIC "-//W3C//DTD SVG 1.1//EN" "http://www.w3.org/Graphics/SVG/1.1/DTD/svg11.dtd">
<svg version="1.1" id="Layer_1" xmlns="http://www.w3.org/2000/svg" xmlns:xlink="http://www.w3.org/1999/xlink" x="0px" y="0px"
	 width="29.99px" height="29.99px" viewBox="-3.501 -3.501 29.99 29.99" enable-background="new -3.501 -3.501 29.99 29.99"
	 xml:space="preserve">
<g>
	<path d="M8.704,10.385c0.384,0,0.706-0.15,0.955-0.436c0.396-0.447,0.567-1.18,0.463-1.96C9.937,6.598,8.946,5.441,7.906,5.41
		H7.865c-0.366,0-0.692,0.147-0.943,0.436c-0.389,0.44-0.551,1.139-0.45,1.916c0.184,1.391,1.198,2.591,2.215,2.623H8.704z"/>
	<path d="M9.837,14.582C9.736,14.51,9.628,14.44,9.52,14.362c-0.321-0.098-0.66-0.15-1.008-0.152H8.469
		c-1.599,0-3.002,0.969-3.002,2.074c0,1.199,1.2,2.141,2.735,2.141c2.024,0,3.049-0.695,3.049-2.072c0-0.129-0.016-0.264-0.046-0.4
		C11.066,15.416,10.577,15.082,9.837,14.582z"/>
	<path d="M11.496-3.501c-8.283,0-14.997,6.714-14.997,14.994c0,8.283,6.714,14.998,14.997,14.998
		c8.282,0,14.995-6.715,14.995-14.998C26.49,3.211,19.773-3.501,11.496-3.501z M10.129,19.653c-0.597,0.172-1.242,0.26-1.92,0.26
		c-0.753,0-1.48-0.088-2.156-0.26c-1.308-0.328-2.277-0.951-2.729-1.76c-0.193-0.354-0.293-0.723-0.293-1.107
		c0-0.398,0.095-0.799,0.281-1.197c0.719-1.529,2.609-2.559,4.702-2.559c0.021,0,0.043,0,0.062,0
		c-0.171-0.297-0.254-0.609-0.254-0.934c0-0.164,0.022-0.327,0.065-0.498c-2.196-0.051-3.84-1.659-3.84-3.778
		c0-1.497,1.197-2.955,2.908-3.547C7.47,4.096,7.992,4.006,8.504,4.006h4.699c0.16,0,0.301,0.104,0.35,0.255
		c0.053,0.154-0.004,0.321-0.133,0.416l-1.053,0.759C12.305,5.48,12.23,5.507,12.15,5.507h-0.375
		c0.488,0.581,0.769,1.409,0.769,2.342c0,1.031-0.518,2.002-1.466,2.745c-0.731,0.569-0.763,0.725-0.763,1.053
		c0.012,0.179,0.521,0.762,1.083,1.159c1.31,0.928,1.796,1.838,1.796,3.354C13.195,17.739,11.993,19.114,10.129,19.653z
		 M20.74,11.596c0,0.202-0.166,0.367-0.369,0.367h-2.668v2.669c0,0.207-0.166,0.371-0.373,0.371h-0.758
		c-0.205,0-0.367-0.164-0.367-0.371v-2.669h-2.674c-0.201,0-0.367-0.165-0.367-0.367v-0.762c0-0.206,0.166-0.371,0.367-0.371h2.67
		V7.796c0-0.204,0.166-0.369,0.371-0.369h0.758c0.207,0,0.373,0.165,0.373,0.369v2.668h2.668c0.203,0,0.369,0.165,0.369,0.371
		V11.596L20.74,11.596z"/>
</g>
</svg>
