<?xml version="1.0" encoding="utf-8"?>
<!-- Generator: Adobe Illustrator 14.0.0, SVG Export Plug-In . SVG Version: 6.00 Build 43363)  -->
<!DOCTYPE svg PUBLIC "-//W3C//DTD SVG 1.1//EN" "http://www.w3.org/Graphics/SVG/1.1/DTD/svg11.dtd">
<svg version="1.1" id="Layer_1" xmlns="http://www.w3.org/2000/svg" xmlns:xlink="http://www.w3.org/1999/xlink" x="0px" y="0px"
	 width="29.99px" height="29.99px" viewBox="-3.501 -3.501 29.99 29.99" enable-background="new -3.501 -3.501 29.99 29.99"
	 xml:space="preserve">
<g>
	<g id="XMLID_1_">
	</g>
</g>
<g>
	<g id="XMLID_2_">
		<g>
			<path fill="#FFFFFF" d="M11.074,10.594c0.95-0.74,1.47-1.72,1.47-2.75c0-0.93-0.28-1.76-0.77-2.34h0.38
				c0.08,0,0.149-0.02,0.21-0.07l1.05-0.76c0.13-0.09,0.19-0.26,0.14-0.41c-0.05-0.15-0.189-0.26-0.35-0.26h-4.7
				c-0.51,0-1.03,0.09-1.55,0.27c-1.71,0.59-2.91,2.05-2.91,3.55c0,2.11,1.65,3.72,3.84,3.77c-0.04,0.17-0.06,0.34-0.06,0.5
				c0,0.33,0.08,0.641,0.25,0.94c-0.02,0-0.04,0-0.06,0c-2.09,0-3.98,1.03-4.7,2.55c-0.19,0.4-0.28,0.8-0.28,1.2
				c0,0.38,0.1,0.75,0.29,1.11c0.45,0.81,1.42,1.43,2.73,1.76c0.67,0.17,1.4,0.26,2.15,0.26c0.68,0,1.33-0.09,1.92-0.26
				c1.87-0.54,3.07-1.92,3.07-3.49c0-1.52-0.49-2.43-1.8-3.36c-0.56-0.399-1.07-0.979-1.08-1.16
				C10.313,11.314,10.344,11.164,11.074,10.594z M13.534,10.464c-0.21,0-0.37,0.16-0.37,0.37v0.76c0,0.2,0.16,0.37,0.37,0.37h2.67
				v2.669c0,0.2,0.16,0.37,0.37,0.37h0.75c0.21,0,0.38-0.17,0.38-0.37v-2.669h2.67c0.2,0,0.37-0.17,0.37-0.37v-0.76
				c0-0.21-0.17-0.37-0.37-0.37h-2.67v-2.67c0-0.2-0.17-0.37-0.38-0.37h-0.75c-0.21,0-0.37,0.17-0.37,0.37v2.67H13.534z
				 M11.494-3.506c8.28,0,15,6.72,15,15c0,8.28-6.72,15-15,15c-8.28,0-15-6.72-15-15C-3.506,3.214,3.214-3.506,11.494-3.506z"/>
			<path fill="#FFFFFF" d="M9.833,14.584c0.74,0.5,1.23,0.83,1.37,1.37c0.03,0.13,0.05,0.271,0.05,0.4c0,1.38-1.03,2.069-3.05,2.069
				c-1.54,0-2.74-0.939-2.74-2.14c0-1.11,1.41-2.08,3-2.08h0.05c0.35,0.01,0.68,0.06,1.01,0.16
				C9.624,14.444,9.734,14.513,9.833,14.584z"/>
			<path fill="#FFFFFF" d="M10.124,7.984c0.1,0.78-0.07,1.52-0.47,1.96c-0.24,0.29-0.57,0.44-0.95,0.44h-0.02
				c-1.02-0.03-2.03-1.23-2.21-2.62c-0.1-0.78,0.06-1.48,0.45-1.92c0.25-0.29,0.57-0.43,0.94-0.43h0.04
				C8.944,5.444,9.934,6.594,10.124,7.984z"/>
		</g>
		<g>
		</g>
	</g>
</g>
</svg>
