<?xml version="1.0" encoding="utf-8"?>
<!-- Generator: Adobe Illustrator 15.0.0, SVG Export Plug-In . SVG Version: 6.00 Build 0)  -->
<!DOCTYPE svg PUBLIC "-//W3C//DTD SVG 1.1//EN" "http://www.w3.org/Graphics/SVG/1.1/DTD/svg11.dtd">
<svg version="1.1" id="Capa_1" xmlns="http://www.w3.org/2000/svg" xmlns:xlink="http://www.w3.org/1999/xlink" x="0px" y="0px"
	 width="17px" height="17px" viewBox="41.5 41.5 17 17" enable-background="new 41.5 41.5 17 17" xml:space="preserve">
<g id="Layer_3">
	<path fill="#FFFFFF" d="M52.82,41.502H47.18c-1.141,0-2.064,0.941-2.064,2.101v12.794c0,1.161,0.924,2.102,2.064,2.102h5.641
		c1.141,0,2.064-0.94,2.064-2.102V43.603C54.885,42.443,53.961,41.502,52.82,41.502z M50,57.387c-0.555,0-1.006-0.449-1.006-1.005
		c0-0.555,0.451-1.004,1.006-1.004c0.557,0,1.006,0.449,1.006,1.004C51.006,56.938,50.557,57.387,50,57.387z M53.612,54.537h-7.225
		v-10.7h7.225V54.537z"/>
</g>
</svg>
