<?xml version="1.0" encoding="utf-8"?>
<!-- Generator: Adobe Illustrator 15.0.0, SVG Export Plug-In . SVG Version: 6.00 Build 0)  -->
<!DOCTYPE svg PUBLIC "-//W3C//DTD SVG 1.1//EN" "http://www.w3.org/Graphics/SVG/1.1/DTD/svg11.dtd">
<svg version="1.1" id="Capa_1" xmlns="http://www.w3.org/2000/svg" xmlns:xlink="http://www.w3.org/1999/xlink" x="0px" y="0px"
	 width="17px" height="17px" viewBox="41.5 41.5 17 17" enable-background="new 41.5 41.5 17 17" xml:space="preserve">
<g>
	<path fill="#FFFFFF" d="M56.425,52.713c-0.725,1.172-2.883,2.063-5.529,2.229c-0.135,0.01-0.273,0.014-0.412,0.02
		c-0.023,0-0.05,0-0.074,0c-0.136,0.006-0.271,0.006-0.409,0.006l0,0c-0.001,0-0.001,0-0.001,0c-0.137,0-0.273-0.002-0.408-0.006
		c-0.026,0-0.052,0-0.074,0c-0.139-0.006-0.276-0.01-0.413-0.02c-2.646-0.166-4.803-1.057-5.528-2.229
		c-0.17-0.277-0.261-0.129-0.261,0.008s0,1.914,0,1.914c0,1.164,1.182,2.354,2.976,3.078l0,0c0.007,0.004,0.014,0.004,0.021,0.008
		c0.11,0.043,0.228,0.088,0.346,0.127c0.025,0.012,0.05,0.02,0.074,0.027c0.128,0.043,0.257,0.086,0.39,0.125
		c0.005,0.002,0.012,0.004,0.019,0.006c0.126,0.035,0.252,0.07,0.382,0.102c0.028,0.008,0.059,0.016,0.088,0.021
		c0.136,0.033,0.275,0.064,0.414,0.09c0.009,0.002,0.016,0.004,0.02,0.004c0.134,0.025,0.271,0.047,0.406,0.066
		c0.033,0.008,0.067,0.012,0.103,0.018c0.146,0.02,0.289,0.037,0.437,0.053c0.005,0,0.011,0,0.018,0
		c0.14,0.014,0.281,0.021,0.426,0.031c0.038,0.002,0.077,0.002,0.116,0.008c0.147,0.004,0.3,0.008,0.451,0.008c0,0,0,0,0.001,0l0,0
		l0,0l0,0c0.153,0,0.305-0.004,0.453-0.008c0.039-0.006,0.076-0.006,0.115-0.008c0.144-0.01,0.285-0.018,0.428-0.029
		c0.005-0.002,0.011-0.002,0.017-0.002c0.146-0.016,0.291-0.033,0.434-0.053c0.037-0.006,0.071-0.01,0.106-0.018
		c0.136-0.02,0.271-0.041,0.403-0.066c0.006,0,0.015-0.002,0.02-0.004c0.142-0.025,0.278-0.057,0.416-0.09
		c0.029-0.006,0.059-0.014,0.088-0.021c0.13-0.031,0.259-0.064,0.381-0.102c0.007-0.002,0.013-0.004,0.021-0.004
		c0.133-0.041,0.26-0.082,0.388-0.127c0.025-0.008,0.052-0.016,0.074-0.027c0.118-0.039,0.235-0.084,0.348-0.127
		c0.007-0.004,0.014-0.004,0.018-0.006v-0.002c1.795-0.725,2.979-1.914,2.979-3.078c0,0,0-1.777,0-1.914
		C56.688,52.586,56.597,52.436,56.425,52.713z"/>
	<path fill="#FFFFFF" d="M56.679,43.98c-0.18-1.331-3.101-2.387-6.679-2.387l0,0c-0.001,0,0,0-0.001,0
		c-3.692,0-6.687,1.126-6.687,2.514v1.202c0,1.475,2.994,2.668,6.687,2.668c0,0,0,0,0.001,0l0,0c3.578,0,6.499-1.119,6.679-2.529
		c0.005-0.047,0.009-0.091,0.009-0.139v-1.202C56.688,44.064,56.684,44.021,56.679,43.98z"/>
	<path fill="#FFFFFF" d="M56.435,47.827c-0.625,0.909-2.367,1.628-4.579,1.888c-0.287,0.035-0.58,0.06-0.882,0.079
		c-0.015,0-0.028,0.003-0.042,0.003c-0.144,0.008-0.285,0.016-0.432,0.02c-0.019,0.001-0.035,0.001-0.055,0.001
		c-0.148,0.004-0.295,0.005-0.445,0.005c-0.004,0-0.012,0-0.017,0c-0.14,0-0.278-0.001-0.416-0.005c-0.024,0-0.051,0-0.076-0.001
		c-0.141-0.004-0.28-0.012-0.417-0.02c-0.019,0-0.038-0.003-0.056-0.005c-0.294-0.018-0.579-0.042-0.858-0.076
		c-2.219-0.258-3.969-0.976-4.597-1.889c-0.163-0.239-0.251-0.109-0.251,0c0,0.106,0,2.249,0,2.249c0,1.674,2.962,3.036,6.628,3.047
		h0.118l0,0c0.014,0,0.027,0,0.04,0h0.072h0.002c3.611-0.043,6.515-1.389,6.515-3.047c0,0,0-2.143,0-2.25
		C56.688,47.718,56.6,47.588,56.435,47.827z"/>
</g>
</svg>
