<?xml version="1.0" encoding="utf-8"?>
<!-- Generator: Adobe Illustrator 15.0.0, SVG Export Plug-In . SVG Version: 6.00 Build 0)  -->
<!DOCTYPE svg PUBLIC "-//W3C//DTD SVG 1.1//EN" "http://www.w3.org/Graphics/SVG/1.1/DTD/svg11.dtd">
<svg version="1.1" id="Capa_1" xmlns="http://www.w3.org/2000/svg" xmlns:xlink="http://www.w3.org/1999/xlink" x="0px" y="0px"
	 width="17px" height="17px" viewBox="0 0 17 17" enable-background="new 0 0 17 17" xml:space="preserve">
<g>
	<path fill="#FFFFFF" d="M16.741,3.618l-2.283-2.283c-0.169-0.17-0.444-0.17-0.615,0l-2.906,3.324
		c-0.17,0.17-0.189,0.426-0.044,0.571l0.816,0.816l-3.61,3.611L7.979,9.537c-0.118-0.118-0.308-0.118-0.425,0l-5.66,5.365
		c-0.153,0.152-0.153,0.399,0,0.552l0.727,0.728c0.152,0.152,0.399,0.152,0.551,0l5.367-5.659c0.118-0.118,0.118-0.309,0-0.426
		L8.42,9.979l3.611-3.611l0.815,0.816c0.146,0.145,0.402,0.125,0.571-0.044l3.323-2.906C16.911,4.063,16.911,3.787,16.741,3.618z
		 M12.326,4.937c-0.075,0.075-0.195,0.075-0.269,0c-0.075-0.074-0.075-0.195,0-0.27l1.954-1.956c0.075-0.075,0.196-0.075,0.271,0
		c0.073,0.075,0.073,0.195,0,0.27L12.326,4.937z M14.553,3.253c0.075-0.074,0.196-0.074,0.27,0c0.075,0.074,0.075,0.196,0,0.27
		l-1.955,1.956c-0.074,0.075-0.194,0.073-0.27-0.001c-0.074-0.074-0.075-0.194,0-0.269L14.553,3.253z M13.409,6.019
		c-0.074,0.075-0.195,0.075-0.271,0c-0.074-0.075-0.074-0.194,0-0.269l1.955-1.956c0.075-0.074,0.196-0.074,0.271,0
		c0.075,0.074,0.075,0.195,0,0.27L13.409,6.019z"/>
	<g id="Layer_46">
		<path fill="#FFFFFF" d="M5.858,5.366c1.88,1.88,3.332,3.442,3.332,3.442c0.261,0.261,0.332,0.51,0.332,0.51
			C9.501,9.341,9.518,9.374,9.518,9.374s0.271,0.463,0.886,0.982c1.567,1.388,2.188,2.297,2.188,2.297
			c1.091,1.379,1.744,3.477,1.744,3.477s0.062,0.198,0.198,0.161c0.957-0.261,2.176-1.109,2.176-1.109
			c0.183-0.139,0.037-0.254,0.037-0.254l-0.583-0.559c-0.702-0.689-1.415-1.849-1.415-1.849c-1.803-2.581-3.363-3.771-4.137-4.251
			c0,0-0.046-0.017-0.082,0.021l-0.428-0.308c-0.777-0.56-1.827-1.694-1.827-1.694C6.69,4.462,6.592,3.782,6.592,3.782
			c-0.162-0.484-0.05-0.607-0.05-0.607l0.365-0.37l0.042-0.042C6.992,2.72,7.003,2.666,7.003,2.666L7.001,2.537
			c0-0.073-0.036-0.122-0.036-0.122C6.204,1.5,5.389,0.784,5.389,0.784C5.208,0.603,5.072,0.788,5.072,0.788S3,3.329,0.478,4.839
			L0.409,4.884C0.113,5.022,0.132,5.232,0.132,5.232C0.18,5.92,1.126,6.757,1.126,6.757C2.567,8.115,3.6,8.039,3.6,8.039
			c0.076-0.004,0.087-0.086,0.087-0.086l0.04-0.175C3.97,6.671,4.575,5.625,4.575,5.625c0.583-0.809,1.181-0.35,1.181-0.35
			S5.801,5.307,5.858,5.366z"/>
	</g>
</g>
</svg>
