<?xml version="1.0" encoding="utf-8"?>
<!-- Generator: Adobe Illustrator 15.0.0, SVG Export Plug-In . SVG Version: 6.00 Build 0)  -->
<!DOCTYPE svg PUBLIC "-//W3C//DTD SVG 1.1//EN" "http://www.w3.org/Graphics/SVG/1.1/DTD/svg11.dtd">
<svg version="1.1" id="Capa_1" xmlns="http://www.w3.org/2000/svg" xmlns:xlink="http://www.w3.org/1999/xlink" x="0px" y="0px"
	 width="17px" height="17px" viewBox="41.5 41.5 17 17" enable-background="new 41.5 41.5 17 17" xml:space="preserve">
<g id="Your_Icon">
	<polygon fill="#FFFFFF" points="43.575,46.527 45.733,45.668 48.037,44.752 50,43.971 52.304,43.054 50,42.138 47.697,43.054 
		45.733,43.835 43.43,44.752 42.138,45.266 42.138,47.099 42.138,47.099 	"/>
	<polygon fill="#FFFFFF" points="43.575,49.923 45.539,49.142 47.842,48.225 50,47.366 52.304,46.45 54.268,45.668 56.57,44.752 
		54.268,43.835 51.964,44.752 50,45.534 47.697,46.45 45.539,47.309 43.236,48.225 42.138,48.662 42.138,48.662 42.138,49.499 
		42.138,50.495 42.138,50.495 	"/>
	<polygon fill="#FFFFFF" points="56.425,46.527 54.461,47.309 52.157,48.225 50,49.083 47.697,50 45.733,50.781 43.43,51.697 
		42.138,52.212 42.138,52.212 42.138,53.022 42.138,54.045 42.138,54.045 43.575,53.473 45.733,52.614 48.037,51.697 50,50.917 
		52.304,50 54.461,49.142 56.765,48.225 57.862,47.788 57.862,47.099 57.862,46.638 57.862,45.955 	"/>
	<polygon fill="#FFFFFF" points="54.268,50.781 51.964,51.697 50,52.479 47.697,53.396 45.539,54.254 43.236,55.171 45.539,56.087 
		47.842,55.171 50,54.313 52.304,53.396 54.268,52.614 56.57,51.697 57.862,51.184 57.862,50.495 57.862,50 57.862,49.351 
		56.425,49.923 	"/>
	<polygon fill="#FFFFFF" points="54.461,54.254 52.157,55.171 50,56.029 47.697,56.945 50,57.862 52.304,56.945 54.461,56.087 
		56.765,55.171 57.862,54.733 57.862,54.045 57.862,52.901 56.425,53.473 	"/>
</g>
</svg>
