<?xml version="1.0" encoding="utf-8"?>
<!-- Generator: Adobe Illustrator 16.0.0, SVG Export Plug-In . SVG Version: 6.00 Build 0)  -->
<!DOCTYPE svg PUBLIC "-//W3C//DTD SVG 1.1//EN" "http://www.w3.org/Graphics/SVG/1.1/DTD/svg11.dtd">
<svg version="1.1" id="Layer_1" xmlns="http://www.w3.org/2000/svg" xmlns:xlink="http://www.w3.org/1999/xlink" x="0px" y="0px"
	 width="30px" height="30px" viewBox="-3.5 -3.5 30 30" enable-background="new -3.5 -3.5 30 30" xml:space="preserve">
<path d="M11.5-3.5c-8.284,0-15,6.716-15,15s6.716,15,15,15s15-6.716,15-15S19.784-3.5,11.5-3.5z M7.49,18.018
	c0,0.137,0,0.137-0.132,0.137c-0.92,0-1.839,0-2.759,0c-0.039,0-0.077,0-0.128,0c0-0.051,0-0.089,0-0.129c0-3.144,0-6.286,0-9.43
	c0-0.134,0-0.134,0.137-0.134c0.914,0,1.826,0,2.739,0c0.144,0,0.144,0.001,0.144,0.145C7.49,11.744,7.49,14.881,7.49,18.018z
	 M5.979,7.172C4.986,7.176,4.223,6.377,4.234,5.406C4.219,4.457,5.03,3.645,5.999,3.658c0.954,0.013,1.748,0.77,1.747,1.75
	C7.744,6.398,6.986,7.17,5.979,7.172z M18.766,18.157c-0.049,0-0.087,0-0.13,0c-0.922,0-1.845,0-2.767,0
	c-0.143,0-0.143,0-0.143-0.14c0-1.68,0.001-3.36-0.003-5.039c0-0.439-0.043-0.877-0.219-1.29c-0.206-0.477-0.576-0.731-1.093-0.784
	c-0.354-0.036-0.695-0.003-1.029,0.13c-0.369,0.145-0.614,0.42-0.767,0.776c-0.15,0.348-0.222,0.72-0.225,1.1
	c-0.012,1.696-0.014,3.397-0.021,5.094c0,0.172,0.019,0.15-0.145,0.153c-0.914,0-1.826,0-2.739,0c-0.134,0-0.134,0-0.134-0.131
	c0-3.142,0-6.284,0-9.428c0-0.133,0.002-0.135,0.133-0.135c0.876,0,1.751,0,2.629,0c0.136,0,0.136,0.001,0.136,0.137
	c0,0.362,0,0.725,0,1.088c0,0.033,0.005,0.067,0.008,0.103c0.008,0,0.016,0.002,0.024,0.002c0.042-0.066,0.085-0.135,0.131-0.202
	c0.262-0.396,0.609-0.695,1.018-0.926c0.497-0.277,1.032-0.412,1.602-0.426c0.577-0.013,1.143,0.044,1.692,0.239
	c0.617,0.219,1.091,0.609,1.425,1.169c0.268,0.45,0.41,0.943,0.491,1.455c0.051,0.321,0.095,0.649,0.1,0.974
	c0.021,0.919,0.021,1.839,0.025,2.756c0.004,1.062,0,2.125,0,3.186C18.766,18.058,18.766,18.099,18.766,18.157z"/>
</svg>
