<?xml version="1.0" encoding="utf-8"?>
<!-- Generator: Adobe Illustrator 16.0.0, SVG Export Plug-In . SVG Version: 6.00 Build 0)  -->
<!DOCTYPE svg PUBLIC "-//W3C//DTD SVG 1.1//EN" "http://www.w3.org/Graphics/SVG/1.1/DTD/svg11.dtd">
<svg version="1.1" id="Layer_1" xmlns="http://www.w3.org/2000/svg" xmlns:xlink="http://www.w3.org/1999/xlink" x="0px" y="0px"
	 width="17px" height="17px" viewBox="6.5 6.5 17 17" enable-background="new 6.5 6.5 17 17" xml:space="preserve">
<path fill="#FFFFFF" d="M17.244,6.723h-4.195c-2.317,0-4.195,1.877-4.195,4.195v8.389c0,2.314,1.878,4.193,4.195,4.193h4.195
	c2.313,0,4.192-1.879,4.192-4.193v-8.389C21.437,8.601,19.558,6.723,17.244,6.723z M15.146,22.486c-0.598,0-1.081-0.484-1.081-1.082
	c0-0.6,0.483-1.081,1.081-1.081s1.081,0.483,1.081,1.081S15.743,22.486,15.146,22.486z M10.95,19.307v-8.389
	c0-1.156,0.941-2.097,2.097-2.097h4.193c1.158,0,2.098,0.942,2.098,2.097l0.002,8.389H10.95z"/>
</svg>
