<?xml version="1.0" encoding="utf-8"?>
<!-- Generator: Adobe Illustrator 16.0.0, SVG Export Plug-In . SVG Version: 6.00 Build 0)  -->
<!DOCTYPE svg PUBLIC "-//W3C//DTD SVG 1.1//EN" "http://www.w3.org/Graphics/SVG/1.1/DTD/svg11.dtd">
<svg version="1.1" id="Layer_1" xmlns="http://www.w3.org/2000/svg" xmlns:xlink="http://www.w3.org/1999/xlink" x="0px" y="0px"
	 width="17px" height="17px" viewBox="6.5 6.5 17 17" enable-background="new 6.5 6.5 17 17" xml:space="preserve">
<path fill="#FFFFFF" d="M22.971,7.64H7.244c-0.293,0-0.53,0.237-0.53,0.53v11.484c0,0.294,0.237,0.531,0.53,0.531h6.891v1.812
	h-3.092c-0.293,0-0.53,0.202-0.53,0.451v0.602c0,0.249,0.237,0.45,0.53,0.45h8.128c0.294,0,0.53-0.201,0.53-0.45v-0.602
	c0-0.249-0.236-0.451-0.53-0.451h-3.092v-1.812h6.892c0.292,0,0.529-0.237,0.529-0.531V8.17C23.5,7.877,23.263,7.64,22.971,7.64z
	 M22.219,18.4c0,0.279-0.228,0.508-0.508,0.508H8.503c-0.28,0-0.508-0.229-0.508-0.508V9.425c0-0.28,0.228-0.508,0.508-0.508h13.208
	c0.28,0,0.508,0.228,0.508,0.508V18.4z"/>
</svg>
