<?xml version="1.0" encoding="utf-8"?>
<!-- Generator: Adobe Illustrator 16.0.0, SVG Export Plug-In . SVG Version: 6.00 Build 0)  -->
<!DOCTYPE svg PUBLIC "-//W3C//DTD SVG 1.1//EN" "http://www.w3.org/Graphics/SVG/1.1/DTD/svg11.dtd">
<svg version="1.1" id="Layer_1" xmlns="http://www.w3.org/2000/svg" xmlns:xlink="http://www.w3.org/1999/xlink" x="0px" y="0px"
	 width="29px" height="29px" viewBox="0.5 0.5 29 29" enable-background="new 0.5 0.5 29 29" xml:space="preserve">
<path fill="#020202" d="M14.999,0.5c-8.008,0-14.5,6.492-14.5,14.5c0,8.009,6.492,14.5,14.5,14.5c8.009,0,14.5-6.491,14.5-14.5
	C29.499,6.992,23.008,0.5,14.999,0.5z M10.668,21.944c-1.091-0.007-1.969-0.888-1.965-1.976c0.004-1.094,0.892-1.978,1.982-1.971
	c1.089,0.005,1.97,0.892,1.966,1.977C12.649,21.068,11.759,21.952,10.668,21.944z M15.456,21.938
	c-0.046-1.84-0.677-3.446-1.981-4.754c-1.306-1.31-2.914-1.941-4.765-1.993c0-0.925,0-1.851,0-2.775
	c4.996-0.119,9.586,4.16,9.526,9.522C17.313,21.938,16.392,21.938,15.456,21.938z M20.232,21.936
	c-0.061-3.149-1.15-5.889-3.384-8.125c-2.236-2.238-4.974-3.331-8.142-3.394c0-0.956,0-1.909,0-2.876
	c3.44,0.045,6.52,1.104,9.157,3.307c3.441,2.876,5.135,6.609,5.255,11.088C22.146,21.936,21.192,21.936,20.232,21.936z"/>
</svg>
