<?xml version="1.0" encoding="utf-8"?>
<!-- Generator: Adobe Illustrator 16.0.0, SVG Export Plug-In . SVG Version: 6.00 Build 0)  -->
<!DOCTYPE svg PUBLIC "-//W3C//DTD SVG 1.1//EN" "http://www.w3.org/Graphics/SVG/1.1/DTD/svg11.dtd">
<svg version="1.1" id="Layer_1" xmlns="http://www.w3.org/2000/svg" xmlns:xlink="http://www.w3.org/1999/xlink" x="0px" y="0px"
	 width="30px" height="30px" viewBox="-3.5 -3.5 30 30" enable-background="new -3.5 -3.5 30 30" xml:space="preserve">
<g>
	<path fill="#FFFFFF" d="M14.494,11.888c-0.321-0.28-0.682-0.485-1.066-0.625c-0.616-0.219-1.255-0.385-1.89-0.553
		c-0.521-0.138-1.04-0.262-1.535-0.499c-0.545-0.263-0.43-1.008-0.08-1.276c0.249-0.191,0.524-0.285,0.839-0.33
		c0.525-0.075,1.024-0.012,1.479,0.234c0.287,0.155,0.525,0.401,0.779,0.615c0.318,0.268,0.629,0.507,1.093,0.469
		c0.7-0.056,1.033-0.736,0.815-1.269c-0.204-0.504-0.588-0.838-1.037-1.101c-0.87-0.508-1.832-0.671-2.819-0.723
		c-0.281-0.016-0.569,0.041-0.852,0.07C9.668,6.959,9.158,7.146,8.697,7.455C8.239,7.76,7.89,8.16,7.681,8.678
		C7.515,9.082,7.472,9.499,7.478,9.93c0.002,0.304,0.078,0.586,0.203,0.854c0.253,0.536,0.698,0.889,1.219,1.119
		c0.479,0.214,0.988,0.369,1.494,0.514c0.687,0.194,1.401,0.299,2.062,0.585c0.306,0.136,0.708,0.457,0.649,0.846
		c0.028,0.474-0.369,0.904-0.815,1.069c-0.348,0.133-0.706,0.143-1.067,0.146c-0.726,0.005-1.238-0.375-1.696-0.882
		c-0.225-0.247-0.448-0.511-0.716-0.703c-0.377-0.265-0.846-0.18-1.119,0.229c-0.27,0.4-0.184,0.796-0.018,1.195
		c0.24,0.567,0.706,0.909,1.229,1.178c0.779,0.409,1.63,0.547,2.495,0.578c0.362,0.013,0.734-0.043,1.095-0.109
		c0.869-0.158,1.631-0.524,2.175-1.248c0.482-0.64,0.651-1.375,0.54-2.155C15.135,12.649,14.885,12.231,14.494,11.888z"/>
	<path fill="#FFFFFF" d="M11.238-3.5c-8.285,0-15,6.716-15,15s6.715,15,15,15c8.286,0,15-6.716,15-15S19.524-3.5,11.238-3.5z
		 M18.153,17.247c-0.187,0.298-0.404,0.589-0.654,0.836c-0.578,0.57-1.276,0.95-2.084,1.075c-0.371,0.056-0.753,0.097-1.123,0.068
		C13.69,19.181,13.12,19,12.585,18.704c-0.079-0.042-0.197-0.018-0.3-0.013c-0.556,0.024-1.114,0.103-1.667,0.064
		c-1.246-0.096-2.387-0.524-3.409-1.237c-0.354-0.247-0.69-0.532-0.991-0.842c-0.609-0.635-1.118-1.346-1.421-2.181
		c-0.18-0.492-0.346-0.996-0.458-1.509c-0.084-0.387-0.074-0.793-0.107-1.216c0.031-0.338,0.072-0.693,0.093-1.049
		c0.006-0.106-0.019-0.229-0.071-0.323c-0.261-0.469-0.406-0.968-0.472-1.5C3.652,7.87,3.899,6.941,4.47,6.088
		c0.461-0.69,1.094-1.159,1.862-1.474C6.93,4.368,7.549,4.296,8.18,4.339c0.59,0.04,1.162,0.21,1.673,0.514
		c0.15,0.09,0.263,0.024,0.385,0.021c0.353-0.009,0.703-0.06,1.054-0.064c1.035-0.006,2.022,0.219,2.956,0.677
		c0.565,0.276,1.083,0.611,1.562,1.021c0.66,0.562,1.175,1.23,1.588,1.988c0.338,0.618,0.57,1.272,0.705,1.96
		c0.12,0.594,0.133,1.199,0.115,1.804c-0.008,0.192-0.033,0.389-0.079,0.577c-0.031,0.139,0.018,0.241,0.079,0.346
		c0.265,0.456,0.426,0.948,0.469,1.478c0.018,0.232,0.043,0.467,0.035,0.698C18.701,16.034,18.509,16.674,18.153,17.247z"/>
</g>
</svg>
