<?xml version="1.0" encoding="utf-8"?>
<!-- Generator: Adobe Illustrator 16.0.0, SVG Export Plug-In . SVG Version: 6.00 Build 0)  -->
<!DOCTYPE svg PUBLIC "-//W3C//DTD SVG 1.1//EN" "http://www.w3.org/Graphics/SVG/1.1/DTD/svg11.dtd">
<svg version="1.1" id="Layer_1" xmlns="http://www.w3.org/2000/svg" xmlns:xlink="http://www.w3.org/1999/xlink" x="0px" y="0px"
	 width="30px" height="30px" viewBox="0 0 30 30" enable-background="new 0 0 30 30" xml:space="preserve">
<path fill="#FFFFFF" enable-background="new    " d="M15.208,0.417c-8.168,0-14.792,6.622-14.792,14.791S7.04,30,15.208,30
	S30,23.376,30,15.208S23.378,0.417,15.208,0.417z M19.063,19.958c-0.004,0.884-0.002,0.89-0.84,1.158
	c-1.154,0.37-2.336,0.524-3.529,0.229c-0.446-0.107-0.891-0.297-1.295-0.522c-0.817-0.454-1.154-1.209-1.16-2.123
	c-0.01-1.496-0.002-2.995-0.002-4.493c0-0.109,0-0.219,0-0.378c-0.521,0-0.986,0-1.497,0c0-0.604-0.005-1.181,0.008-1.761
	c0.001-0.058,0.104-0.135,0.175-0.162c1.546-0.573,2.344-1.711,2.536-3.317c0.004-0.031,0.015-0.062,0.028-0.112
	c0.631,0,1.262,0,1.929,0c0,1.083,0,2.151,0,3.263c1.075,0,2.118,0,3.187,0c0,0.708,0,1.371,0,2.076c-1.055,0-2.098,0-3.181,0
	c0,0.531,0,1.02,0,1.51c0,0.848,0,1.697,0.004,2.547c0.003,0.92,0.529,1.452,1.448,1.482c0.777,0.026,1.465-0.24,2.191-0.643
	C19.063,19.148,19.064,19.553,19.063,19.958z"/>
</svg>
