<?xml version="1.0" encoding="utf-8"?>
<!-- Generator: Adobe Illustrator 16.0.0, SVG Export Plug-In . SVG Version: 6.00 Build 0)  -->
<!DOCTYPE svg PUBLIC "-//W3C//DTD SVG 1.1//EN" "http://www.w3.org/Graphics/SVG/1.1/DTD/svg11.dtd">
<svg version="1.1" id="Layer_1" xmlns="http://www.w3.org/2000/svg" xmlns:xlink="http://www.w3.org/1999/xlink" x="0px" y="0px"
	 width="30px" height="30px" viewBox="-3.5 -3.5 30 30" enable-background="new -3.5 -3.5 30 30" xml:space="preserve">
<path d="M11.5-3.5c-8.283,0-15,6.716-15,15c0,8.282,6.717,15,15,15c8.284,0,15-6.719,15-15C26.5,3.217,19.784-3.5,11.5-3.5z
	 M15.409,16.316c-0.005,0.895-0.003,0.9-0.853,1.174c-1.172,0.375-2.369,0.531-3.579,0.232c-0.451-0.109-0.9-0.303-1.312-0.529
	c-0.828-0.463-1.169-1.225-1.177-2.152c-0.008-1.52,0-3.039,0-4.558c0-0.11,0-0.222,0-0.383c-0.529,0-1,0-1.519,0
	c0-0.613-0.005-1.198,0.008-1.785c0-0.059,0.105-0.136,0.177-0.163c1.568-0.583,2.378-1.737,2.571-3.365
	c0.006-0.031,0.016-0.062,0.028-0.113c0.64,0,1.281,0,1.957,0c0,1.098,0,2.181,0,3.31c1.09,0,2.147,0,3.232,0
	c0,0.716,0,1.39,0,2.104c-1.07,0-2.13,0-3.228,0c0,0.539,0,1.034,0,1.531c0,0.859,0,1.72,0.004,2.583
	c0.004,0.934,0.537,1.473,1.469,1.502c0.787,0.027,1.484-0.244,2.221-0.652C15.409,15.494,15.41,15.904,15.409,16.316z"/>
</svg>
