<?xml version="1.0" encoding="utf-8"?>
<!-- Generator: Adobe Illustrator 16.0.0, SVG Export Plug-In . SVG Version: 6.00 Build 0)  -->
<!DOCTYPE svg PUBLIC "-//W3C//DTD SVG 1.1//EN" "http://www.w3.org/Graphics/SVG/1.1/DTD/svg11.dtd">
<svg version="1.1" id="Layer_1" xmlns="http://www.w3.org/2000/svg" xmlns:xlink="http://www.w3.org/1999/xlink" x="0px" y="0px"
	 width="30px" height="30px" viewBox="0 0 30 30" enable-background="new 0 0 30 30" xml:space="preserve">
<path fill="#FFFFFF" enable-background="new    " d="M15.207,0.415c-8.167,0-14.791,6.622-14.791,14.791
	C0.416,23.376,7.04,30,15.207,30C23.377,30,30,23.376,30,15.206C30.002,7.037,23.381,0.415,15.207,0.415z M22.874,14.283
	c0,0-0.008,0.91-1.944,0.904c0,0-1.636,4.736-5.609,5.39c-4.831,0.793-8.224-1.622-8.597-3.229c0,0,3.212,2.793,5.769,0.022
	c0,0-0.426-0.001-0.699-0.21c-0.252-0.195-0.35-0.598-0.35-0.598s0.796-0.445,0.492-0.78c0,0-1.756-0.035-1.854-1.099l1.032-0.666
	c0,0-0.405,0.196-0.809-0.002c0,0-1.04-0.748-0.842-1.513l0.874-0.088c0,0-1.51-1.075-1.09-1.897c0,0,0.146-0.71,5.144,2.61
	c0,0,0.883-3.138,2.508-3.827c0,0,0.272,0.129,0.272,0.267c0,0,0.231-0.498,0.534-0.543c0,0,0.369,0.325,0.128,0.509
	c0,0,0.619-0.424,0.923-0.209c0,0-0.023,0.378-0.913,0.846c0,0,2.31,0.128,3.115,3.208c0,0,1.002,0.36,1.942-0.244
	c0,0,0.078,0.455-1.383,1.102C21.514,14.23,21.648,14.45,22.874,14.283z"/>
</svg>
