<?xml version="1.0" encoding="utf-8"?>
<!-- Generator: Adobe Illustrator 16.0.0, SVG Export Plug-In . SVG Version: 6.00 Build 0)  -->
<!DOCTYPE svg PUBLIC "-//W3C//DTD SVG 1.1//EN" "http://www.w3.org/Graphics/SVG/1.1/DTD/svg11.dtd">
<svg version="1.1" id="Layer_1" xmlns="http://www.w3.org/2000/svg" xmlns:xlink="http://www.w3.org/1999/xlink" x="0px" y="0px"
	 width="30px" height="30px" viewBox="0 0 30 30" enable-background="new 0 0 30 30" xml:space="preserve">
<path d="M14.999-0.001C6.717-0.001,0,6.714,0,14.998C0,23.283,6.717,30,14.999,30C23.284,30,30,23.283,30,14.998
	C30.002,6.714,23.288-0.001,14.999-0.001z M23.383,14.086c0,0-0.01,1.074-2.298,1.067c0,0-1.932,5.594-6.625,6.368
	c-5.706,0.937-9.714-1.918-10.155-3.817c0,0,3.794,3.3,6.815,0.028c0,0-0.503-0.002-0.826-0.248
	c-0.297-0.231-0.413-0.707-0.413-0.707s0.94-0.525,0.581-0.921c0,0-2.074-0.041-2.19-1.299l1.219-0.786c0,0-0.478,0.232-0.956-0.002
	c0,0-1.228-0.883-0.995-1.788l1.032-0.104c0,0-1.783-1.27-1.287-2.241c0,0,0.172-0.839,6.076,3.083c0,0,1.043-3.706,2.962-4.521
	c0,0,0.32,0.153,0.32,0.316c0,0,0.272-0.589,0.631-0.642c0,0,0.437,0.384,0.15,0.602c0,0,0.732-0.502,1.091-0.247
	c0,0-0.025,0.446-1.078,0.999c0,0,2.729,0.151,3.68,3.79c0,0,1.184,0.425,2.293-0.29c0,0,0.093,0.539-1.634,1.302
	C21.775,14.022,21.935,14.282,23.383,14.086z"/>
</svg>
