<?xml version="1.0" encoding="utf-8"?>
<!-- Generator: Adobe Illustrator 16.0.0, SVG Export Plug-In . SVG Version: 6.00 Build 0)  -->
<!DOCTYPE svg PUBLIC "-//W3C//DTD SVG 1.1//EN" "http://www.w3.org/Graphics/SVG/1.1/DTD/svg11.dtd">
<svg version="1.1" id="Layer_1" xmlns="http://www.w3.org/2000/svg" xmlns:xlink="http://www.w3.org/1999/xlink" x="0px" y="0px"
	 width="30px" height="30px" viewBox="-3.5 -3.5 30 30" enable-background="new -3.5 -3.5 30 30" xml:space="preserve">
<path d="M11.5-3.5c-8.284,0-15,6.716-15,15s6.716,15,15,15s15-6.716,15-15S19.784-3.5,11.5-3.5z M18.346,10.488
	c-1.328,2.418-2.95,4.622-5.024,6.447c-0.565,0.496-1.248,0.902-1.942,1.199c-1.075,0.46-1.925,0.171-2.516-0.829
	c-0.401-0.675-0.713-1.424-0.948-2.174c-0.527-1.708-0.963-3.443-1.474-5.152C6.315,9.555,6.081,9.153,5.838,8.778
	C5.526,8.292,5.222,8.246,4.737,8.537c-0.269,0.16-0.53,0.331-0.828,0.518C3.667,8.751,3.441,8.474,3.136,8.094
	c1.336-1.07,2.609-2.198,3.995-3.161C8.267,4.145,9.534,4.76,9.93,6.201c0.214,0.779,0.299,1.591,0.467,2.385
	c0.263,1.245,0.527,2.494,0.839,3.728c0.108,0.427,0.282,1.003,0.77,1.006c0.325,0,0.745-0.38,0.957-0.701
	c0.571-0.859,1.065-1.771,1.563-2.678c0.115-0.214,0.155-0.488,0.165-0.737c0.043-1.007-0.39-1.398-1.401-1.28
	c-0.249,0.028-0.499,0.088-0.805,0.144c0.283-1.017,0.748-1.903,1.521-2.605c1.053-0.954,2.309-1.176,3.661-0.908
	c0.922,0.183,1.507,1.1,1.594,2.266C19.354,8.15,18.97,9.35,18.346,10.488z"/>
</svg>
