<?xml version="1.0" encoding="utf-8"?>
<!-- Generator: Adobe Illustrator 16.0.0, SVG Export Plug-In . SVG Version: 6.00 Build 0)  -->
<!DOCTYPE svg PUBLIC "-//W3C//DTD SVG 1.1//EN" "http://www.w3.org/Graphics/SVG/1.1/DTD/svg11.dtd">
<svg version="1.1" id="Layer_1" xmlns="http://www.w3.org/2000/svg" xmlns:xlink="http://www.w3.org/1999/xlink" x="0px" y="0px"
	 width="30px" height="30px" viewBox="-3.5 -3.5 30 30" enable-background="new -3.5 -3.5 30 30" xml:space="preserve">
<g>
	<path d="M6.177,12.646C6.164,12.898,6.17,13.15,6.17,13.395c0.04,0.018,0.054,0.029,0.067,0.029
		c0.194,0.002,0.392,0.005,0.587,0.005c0.325,0.005,0.329,0.005,0.329,0.328c0.001,1.427,0.001,2.853,0.001,4.277
		c0,0.099,0,0.194,0,0.329c0.201,0,0.367-0.015,0.53,0.002c0.203,0.019,0.271-0.046,0.269-0.26c-0.01-1.448-0.005-2.897-0.005-4.346
		c0-0.326,0.002-0.326,0.341-0.331c0.199,0,0.4,0,0.594,0c0-0.326,0-0.618,0-0.92c-0.873,0-1.724-0.003-2.576,0.005
		C6.262,12.514,6.179,12.598,6.177,12.646z"/>
	<path d="M13.835,14.165c-0.233-0.393-0.73-0.41-1.038-0.077c-0.042,0.046-0.084,0.092-0.171,0.188
		c-0.008-0.14-0.016-0.22-0.016-0.298c0-0.431,0.006-0.858-0.005-1.287c-0.002-0.062-0.08-0.169-0.132-0.174
		c-0.191-0.021-0.387-0.009-0.589-0.009c0,1.962,0,3.894,0,5.839c0.229,0,0.442,0,0.662,0c0.016-0.104,0.028-0.193,0.05-0.354
		c0.072,0.094,0.105,0.134,0.137,0.176c0.293,0.417,0.86,0.41,1.119-0.028c0.097-0.166,0.17-0.354,0.203-0.543
		c0.149-0.889,0.122-1.785,0.035-2.678C14.068,14.661,13.969,14.391,13.835,14.165z M13.365,17.179
		c-0.01,0.093-0.023,0.206-0.082,0.275c-0.071,0.09-0.188,0.198-0.285,0.198c-0.1,0-0.251-0.104-0.287-0.196
		c-0.073-0.197-0.123-0.418-0.12-0.632c0.003-0.585,0.038-1.167,0.068-1.751c0-0.058,0.021-0.132,0.059-0.167
		c0.094-0.082,0.206-0.203,0.307-0.196c0.1,0.004,0.236,0.13,0.279,0.231c0.066,0.161,0.084,0.348,0.097,0.525
		c0.016,0.232,0.004,0.466,0.004,0.7c0.008,0,0.017,0.001,0.024,0.001C13.407,16.506,13.393,16.842,13.365,17.179z"/>
	<path d="M11.541,8.98c0.203,0,0.308-0.163,0.369-0.344c0.013-0.036,0.022-0.074,0.024-0.109c0.024-0.442,0.042-0.886,0.064-1.328
		c-0.006,0-0.014,0-0.021,0c0-0.347,0.011-0.694-0.007-1.04c-0.008-0.178-0.031-0.367-0.11-0.522
		c-0.051-0.106-0.193-0.199-0.313-0.233c-0.171-0.048-0.293,0.08-0.342,0.229c-0.054,0.184-0.096,0.381-0.1,0.571
		c-0.013,0.655-0.01,1.31-0.002,1.966c0.004,0.154,0.04,0.31,0.077,0.462C11.227,8.825,11.337,8.983,11.541,8.98z"/>
	<path d="M10.379,14.283c0,0.928,0.003,1.855-0.002,2.786c0,0.123-0.012,0.265-0.074,0.364c-0.058,0.09-0.193,0.181-0.296,0.178
		c-0.097-0.002-0.219-0.106-0.28-0.197c-0.053-0.085-0.053-0.217-0.056-0.327c-0.004-0.942,0-1.886,0-2.826c0-0.081,0-0.161,0-0.246
		c-0.263,0-0.489,0-0.725,0c-0.005,0.066-0.015,0.106-0.015,0.151c0,1.102-0.002,2.202,0.003,3.303
		c0.001,0.155,0.036,0.311,0.071,0.467c0.06,0.256,0.199,0.462,0.476,0.513c0.299,0.057,0.571,0,0.755-0.276
		c0.029-0.046,0.074-0.083,0.146-0.161c0.026,0.144,0.042,0.24,0.059,0.338c0.229,0,0.443,0,0.669,0c0-1.45,0-2.887,0-4.338
		c-0.244,0-0.473,0-0.732,0C10.379,14.12,10.379,14.2,10.379,14.283z"/>
	<path d="M11.5-3.5c-8.285,0-15,6.716-15,15s6.715,15,15,15c8.284,0,15-6.716,15-15S19.784-3.5,11.5-3.5z M13.5,4.561
		c0.255,0,0.524-0.012,0.792,0.012c0.043,0.002,0.104,0.159,0.107,0.245c0.005,1.063,0.002,2.127,0.002,3.191
		c0,0.141-0.008,0.288,0.011,0.429c0.038,0.326,0.234,0.5,0.462,0.409c0.203-0.078,0.254-0.268,0.268-0.46
		c0.02-0.248,0.027-0.497,0.027-0.746c0.002-0.912,0-1.824,0.002-2.737c0-0.104,0.011-0.208,0.018-0.346
		c0.289,0,0.564-0.006,0.841,0.005c0.044,0.001,0.097,0.075,0.122,0.125c0.022,0.043,0.008,0.103,0.008,0.157
		c0,1.552-0.002,3.107,0.006,4.66c0.001,0.225-0.059,0.315-0.293,0.293c-0.217-0.02-0.434-0.002-0.677-0.002
		c0-0.141,0-0.238,0-0.334c-0.02-0.018-0.037-0.033-0.056-0.051c-0.012,0.033-0.012,0.071-0.029,0.097
		c-0.282,0.397-0.606,0.524-1.027,0.409c-0.32-0.087-0.601-0.445-0.606-0.87c-0.014-1.47-0.005-2.941-0.002-4.412
		C13.475,4.622,13.484,4.606,13.5,4.561z M12.409,4.703c0.346,0.304,0.447,0.724,0.497,1.151c0.051,0.441,0.059,0.886,0.092,1.419
		c-0.037,0.435-0.066,0.96-0.135,1.48c-0.103,0.749-0.597,1.207-1.313,1.202c-0.553-0.005-1.113-0.197-1.291-1.079
		c-0.231-1.152-0.237-2.322,0.013-3.471C10.483,4.433,11.677,4.059,12.409,4.703z M7.101,2.795c0.227-0.001,0.454,0.013,0.68-0.004
		c0.187-0.015,0.244,0.085,0.292,0.238C8.3,3.789,8.537,4.548,8.791,5.367c0.123-0.397,0.23-0.739,0.335-1.083
		c0.132-0.43,0.268-0.858,0.39-1.291c0.043-0.15,0.119-0.208,0.275-0.201c0.216,0.01,0.436,0.009,0.654,0
		c0.188-0.007,0.241,0.046,0.175,0.237C10.29,3.971,9.973,4.917,9.65,5.86C9.566,6.108,9.462,6.35,9.394,6.604
		c-0.052,0.186-0.087,0.381-0.09,0.573C9.294,8.034,9.299,8.893,9.299,9.78c-0.352,0-0.673,0-1.017,0
		C8.277,9.697,8.27,9.617,8.27,9.537c0-0.808,0.026-1.615-0.01-2.419C8.244,6.792,8.122,6.463,8.014,6.146
		c-0.353-1.036-0.72-2.067-1.08-3.102C6.852,2.814,6.861,2.797,7.101,2.795z M18.531,17.798c0.013,1.373-1.149,2.438-2.419,2.412
		c-1.537-0.028-3.076-0.006-4.615-0.006c-1.567,0-3.137,0-4.704,0c-1.127,0-2.137-0.89-2.28-2.013
		c-0.026-0.195-0.041-0.389-0.041-0.582c-0.004-1.412-0.003-2.82-0.003-4.234c0-1.192,0.724-2.127,1.877-2.406
		c0.189-0.045,0.388-0.066,0.581-0.066c3.054-0.004,6.109-0.005,9.161-0.001c1.47,0.001,2.464,1.172,2.443,2.441
		C18.51,14.826,18.514,16.313,18.531,17.798z"/>
	<path d="M16.163,16.285c0.269-0.006,0.539-0.002,0.86-0.002c-0.027-0.478-0.031-0.915-0.082-1.342
		c-0.025-0.219-0.101-0.445-0.211-0.634c-0.212-0.366-0.661-0.521-1.104-0.431c-0.468,0.094-0.796,0.397-0.848,0.899
		c-0.067,0.643-0.084,1.29-0.086,1.935c0,0.318,0.06,0.644,0.13,0.954c0.084,0.38,0.298,0.682,0.704,0.767
		c0.173,0.04,0.36,0.031,0.539,0.021c0.341-0.022,0.632-0.173,0.741-0.495c0.102-0.295,0.12-0.615,0.16-0.921
		c0.005-0.042-0.066-0.13-0.106-0.13c-0.176-0.011-0.367-0.025-0.53,0.029c-0.059,0.021-0.05,0.23-0.074,0.355
		c-0.007,0.034-0.026,0.068-0.035,0.104c-0.045,0.19-0.141,0.354-0.352,0.354c-0.225-0.001-0.316-0.184-0.356-0.376
		c-0.028-0.124-0.046-0.251-0.046-0.378c0.001-0.225-0.063-0.527,0.054-0.647C15.635,16.232,15.94,16.289,16.163,16.285z
		 M15.451,15.179c0.02-0.131,0.025-0.283,0.097-0.382c0.069-0.094,0.214-0.176,0.324-0.176c0.101,0,0.261,0.101,0.287,0.189
		c0.066,0.225,0.077,0.468,0.092,0.704c0,0.036-0.084,0.1-0.138,0.109c-0.086,0.02-0.181,0.007-0.269,0.007
		C15.436,15.632,15.396,15.594,15.451,15.179z"/>
</g>
</svg>
