<?xml version="1.0" encoding="utf-8"?>
<!-- Generator: Adobe Illustrator 14.0.0, SVG Export Plug-In . SVG Version: 6.00 Build 43363)  -->
<!DOCTYPE svg PUBLIC "-//W3C//DTD SVG 1.1//EN" "http://www.w3.org/Graphics/SVG/1.1/DTD/svg11.dtd">
<svg version="1.1" id="Layer_1" xmlns="http://www.w3.org/2000/svg" xmlns:xlink="http://www.w3.org/1999/xlink" x="0px" y="0px"
	 width="150px" height="125px" viewBox="0 0 150 125" enable-background="new 0 0 150 125" xml:space="preserve">
<g>
	<g id="XMLID_1_">
		<g>
			<path fill="#FFFFFF" d="M124.33,41.46c3.5,0,5.91,2.83,5.91,6.32c0,3.49-2.41,6.32-5.91,6.32c-3.49,0-5.91-2.83-5.91-6.32
				C118.42,44.29,120.84,41.46,124.33,41.46z"/>
			<path fill="#FFFFFF" d="M96.19,41.46c3.5,0,5.909,2.83,5.909,6.32c0,3.49-2.409,6.32-5.909,6.32c-3.49,0-5.91-2.83-5.91-6.32
				C90.28,44.29,92.7,41.46,96.19,41.46z"/>
			<path fill="#FFFFFF" d="M51.18,46.71c1.12,0,2.07-0.75,2.43-1.75c0.94-2.08,2.92-3.5,5.44-3.5c3.57,0,6.03,2.83,6.03,6.32
				c0,3.49-2.46,6.32-6.02,6.32c-2.57,0-4.57-1.46-5.49-3.6c-0.42-0.88-1.37-1.58-2.43-1.58L51.18,46.71z"/>
			<path fill="#FFFFFF" d="M48.75,45.09c0.37,0.96,1.33,1.62,2.43,1.62l-0.04,2.21c-1.09,0-2.03,0.71-2.43,1.64
				c-0.91,2.1-2.85,3.54-5.35,3.54c-3.49,0-5.91-2.83-5.91-6.32c0-3.49,2.42-6.32,5.91-6.32C45.89,41.46,47.86,42.94,48.75,45.09z"
				/>
			<path fill="#FFFFFF" d="M30.09,47.78c0,1.6,0.28,3.14,0.81,4.56l-2.19,0.71c-0.21-0.59-0.39-1.2-0.53-1.83
				c-1,1.74-2.79,2.88-5.01,2.88c-3.5,0-5.91-2.83-5.91-6.32c0-3.49,2.41-6.32,5.91-6.32c2.22,0,4.01,1.14,5.01,2.88
				c0.14-0.63,0.32-1.24,0.53-1.83l2.19,0.71C30.37,44.64,30.09,46.18,30.09,47.78z"/>
			<path fill="#FFFFFF" d="M72.26,59.93V27.35h-7.41v10.09c-0.35-0.43-2.58-2.93-6.77-2.93c-2.72,0-5.25,0.82-7.36,2.23
				c-2.1-1.41-4.64-2.23-7.36-2.23c-5.73,0-10.6,3.63-12.46,8.71l-2.19-0.71c0.66-1.87,1.66-3.56,2.92-4.96
				c-2.3-1.9-5.25-3.04-8.46-3.04c-7.33,0-13.27,5.94-13.27,13.27c0,7.33,5.94,13.27,13.27,13.27c3.21,0,6.16-1.14,8.46-3.05
				c-1.26-1.4-2.26-3.08-2.92-4.95l2.19-0.71c1.86,5.08,6.73,8.71,12.46,8.71c2.72,0,5.26-0.82,7.36-2.23
				c2.11,1.41,4.64,2.23,7.36,2.23c4.06,0,6.5-2.54,7.23-3.49v2.37H72.26z M81.79,32.83v-5.48h-7.4v5.48H81.79z M81.79,60V35.46
				h-7.4V60H81.79z M102.179,35.46v2.31c0,0-2.46-3.26-6.279-3.26c-7.33,0-12.98,5.94-12.98,13.27c0,7.33,5.76,13.27,12.76,13.27
				c4.561,0,6.5-3.56,6.5-3.56s0.891,7.279-5.93,7.279c-3.13,0-4.2-2.419-4.2-2.419l-8.67,0.04c1.26,5,5.22,8.64,12.95,8.64
				c7.32,0,13.24-4.931,13.24-11.03V35.46H102.179z M111.059,47.78c0,7.33,5.94,13.27,13.271,13.27s13.27-5.94,13.27-13.27
				c0-7.33-5.939-13.27-13.27-13.27S111.059,40.45,111.059,47.78z M146.59,13.67v69.15c0,4.22-3.55,7.64-7.93,7.64h-28.351
				l6.971,29.021L72,90.46H11.43c-4.38,0-7.93-3.42-7.93-7.64V13.67c0-4.21,3.55-7.63,7.93-7.63h127.23
				C143.04,6.04,146.59,9.46,146.59,13.67z"/>
		</g>
		<g>
		</g>
	</g>
</g>
</svg>
