<?xml version="1.0" encoding="utf-8"?>
<!-- Generator: Adobe Illustrator 15.0.0, SVG Export Plug-In . SVG Version: 6.00 Build 0)  -->
<!DOCTYPE svg PUBLIC "-//W3C//DTD SVG 1.1//EN" "http://www.w3.org/Graphics/SVG/1.1/DTD/svg11.dtd">
<svg version="1.1" id="Layer_1" xmlns="http://www.w3.org/2000/svg" xmlns:xlink="http://www.w3.org/1999/xlink" x="0px" y="0px"
	 width="150px" height="125px" viewBox="0 0 150 125" enable-background="new 0 0 150 125" xml:space="preserve">
<path fill="#FFFFFF" d="M135.155,44.565c-8.657,0-15.676,7.018-15.676,15.675c0,8.656,7.019,15.674,15.676,15.674
	c8.655,0,15.674-7.018,15.674-15.674C150.829,51.583,143.811,44.565,135.155,44.565z M135.155,67.709
	c-4.125,0-6.98-3.344-6.98-7.469c0-4.126,2.855-7.47,6.98-7.47s6.979,3.344,6.979,7.47C142.134,64.365,139.28,67.709,135.155,67.709
	z"/>
<path fill="#FFFFFF" d="M64.903,36.113V48.03c-0.419-0.514-3.043-3.465-7.992-3.465c-3.217,0-6.206,0.971-8.694,2.632
	c-2.488-1.662-5.477-2.632-8.694-2.632c-8.656,0-15.675,7.018-15.675,15.675c0,8.656,7.019,15.674,15.675,15.674
	c3.217,0,6.206-0.97,8.694-2.632c2.488,1.662,5.478,2.632,8.694,2.632c4.796,0,7.676-3,8.532-4.12v2.795h8.215V36.113H64.903z
	 M58.059,67.709c-3.034,0-5.394-1.737-6.476-4.254c-0.493-1.047-1.625-1.87-2.875-1.87c-1.288,0-2.392,0.835-2.865,1.935
	c-1.072,2.48-3.371,4.189-6.321,4.189c-4.125,0-6.979-3.344-6.979-7.469c0-4.126,2.854-7.47,6.979-7.47
	c2.989,0,5.31,1.754,6.363,4.29c0.446,1.141,1.572,1.91,2.871,1.91c1.324,0,2.451-0.886,2.878-2.063
	c1.104-2.452,3.437-4.137,6.424-4.137c4.208,0,7.12,3.344,7.12,7.47C65.178,64.365,62.267,67.709,58.059,67.709z"/>
<rect x="76.169" y="45.689" fill="#FFFFFF" width="8.736" height="28.982"/>
<rect x="76.169" y="36.113" fill="#FFFFFF" width="8.736" height="6.474"/>
<path fill="#FFFFFF" d="M108.988,45.689v2.73c0,0-2.901-3.854-7.41-3.854c-8.657,0-15.333,7.018-15.333,15.675
	c0,8.656,6.798,15.674,15.07,15.674c5.384,0,7.673-4.211,7.673-4.211s1.054,8.6-7.004,8.6c-3.69,0-4.956-2.855-4.956-2.855
	l-10.244,0.04c1.488,5.911,6.162,10.203,15.304,10.203c8.636,0,15.636-5.816,15.636-13.02V45.689H108.988z M101.919,67.709
	c-4.125,0-6.979-3.344-6.979-7.469c0-4.126,2.854-7.47,6.979-7.47c4.126,0,6.98,3.344,6.98,7.47
	C108.899,64.365,106.045,67.709,101.919,67.709z"/>
<path fill="#FFFFFF" d="M21.599,64.303c-1.188,2.05-3.296,3.406-5.923,3.406c-4.126,0-6.98-3.344-6.98-7.469
	c0-4.126,2.854-7.47,6.98-7.47c2.625,0,4.734,1.354,5.922,3.404c0.678-3.077,2.108-5.831,4.068-8.013
	c-2.713-2.246-6.194-3.596-9.99-3.596C7.018,44.565,0,51.583,0,60.24c0,8.656,7.017,15.674,15.675,15.674
	c3.798,0,7.281-1.352,9.994-3.6C23.71,70.133,22.279,67.379,21.599,64.303z"/>
</svg>
