<?xml version="1.0" encoding="utf-8"?>
<!-- Generator: Adobe Illustrator 15.0.0, SVG Export Plug-In . SVG Version: 6.00 Build 0)  -->
<!DOCTYPE svg PUBLIC "-//W3C//DTD SVG 1.1//EN" "http://www.w3.org/Graphics/SVG/1.1/DTD/svg11.dtd">
<svg version="1.1" id="Layer_1" xmlns="http://www.w3.org/2000/svg" xmlns:xlink="http://www.w3.org/1999/xlink" x="0px" y="0px"
	 width="150px" height="125px" viewBox="0 0 150 125" enable-background="new 0 0 150 125" xml:space="preserve">
<g>
	<path fill="#FFFFFF" d="M98.766,56.312c-3.7,0-6.258,2.999-6.258,6.698c0,3.699,2.558,6.697,6.258,6.697s6.258-2.998,6.258-6.697
		C105.023,59.31,102.466,56.312,98.766,56.312z"/>
	<path fill="#FFFFFF" d="M59.438,56.312c-2.679,0-4.771,1.511-5.761,3.709c-0.382,1.055-1.393,1.849-2.581,1.849
		c-1.165,0-2.174-0.689-2.574-1.711c-0.944-2.274-3.025-3.847-5.705-3.847c-3.699,0-6.258,2.999-6.258,6.698
		c0,3.699,2.559,6.697,6.258,6.697c2.645,0,4.707-1.532,5.667-3.757c0.424-0.986,1.414-1.735,2.569-1.735
		c1.121,0,2.135,0.738,2.578,1.678c0.97,2.257,3.086,3.814,5.807,3.814c3.773,0,6.383-2.998,6.383-6.697
		C65.821,59.31,63.21,56.312,59.438,56.312z"/>
	<path fill="#FFFFFF" d="M128.566,56.312c-3.699,0-6.26,2.999-6.26,6.698c0,3.699,2.561,6.697,6.26,6.697
		c3.698,0,6.258-2.998,6.258-6.697C134.824,59.31,132.265,56.312,128.566,56.312z"/>
	<path fill="#FFFFFF" d="M143,23.167H7c-3.866,0-7,3.134-7,7v64.666c0,3.866,3.134,7,7,7h136c3.866,0,7-3.134,7-7V30.167
		C150,26.301,146.866,23.167,143,23.167z M21.434,77.063c-7.763,0-14.055-6.292-14.055-14.054c0-7.763,6.292-14.055,14.056-14.055
		c3.404,0,6.525,1.21,8.958,3.224c-1.757,1.956-3.04,4.426-3.647,7.185c-1.066-1.837-2.957-3.052-5.311-3.052
		c-3.7,0-6.258,2.999-6.258,6.698c0,3.699,2.559,6.697,6.258,6.697c2.356,0,4.246-1.216,5.312-3.055
		c0.609,2.758,1.892,5.228,3.649,7.184C27.963,75.852,24.84,77.063,21.434,77.063z M73.425,75.876h-7.366v-2.507
		c-0.768,1.005-3.35,3.694-7.65,3.694c-2.884,0-5.564-0.87-7.796-2.359c-2.23,1.489-4.91,2.359-7.795,2.359
		c-7.761,0-14.055-6.292-14.055-14.054c0-7.763,6.293-14.055,14.055-14.055c2.885,0,5.564,0.869,7.795,2.36
		c2.231-1.49,4.911-2.36,7.796-2.36c4.438,0,6.791,2.646,7.166,3.106V41.376h7.851V75.876z M83.51,75.948h-7.834V49.963h7.834
		V75.948z M83.51,47.181h-7.834v-5.805h7.834V47.181z M112.938,75.948c0,6.46-6.276,11.676-14.021,11.676
		c-8.197,0-12.389-3.85-13.723-9.148l9.186-0.036c0,0,1.134,2.559,4.444,2.559c7.225,0,6.28-7.71,6.28-7.71
		s-2.053,3.775-6.881,3.775c-7.417,0-13.513-6.292-13.513-14.054c0-7.763,5.985-14.055,13.749-14.055
		c4.042,0,6.645,3.455,6.645,3.455v-2.447h7.833V75.948z M128.566,77.063c-7.762,0-14.056-6.292-14.056-14.054
		c0-7.763,6.294-14.055,14.056-14.055s14.054,6.292,14.054,14.055C142.62,70.771,136.328,77.063,128.566,77.063z"/>
</g>
</svg>
