<?xml version="1.0" encoding="utf-8"?>
<!-- Generator: Adobe Illustrator 16.0.0, SVG Export Plug-In . SVG Version: 6.00 Build 0)  -->
<!DOCTYPE svg PUBLIC "-//W3C//DTD SVG 1.1//EN" "http://www.w3.org/Graphics/SVG/1.1/DTD/svg11.dtd">
<svg version="1.1" id="Layer_1" xmlns="http://www.w3.org/2000/svg" xmlns:xlink="http://www.w3.org/1999/xlink" x="0px" y="0px"
	 width="100px" height="100px" viewBox="0 0 100 100" enable-background="new 0 0 100 100" xml:space="preserve">
<g>
	<path fill="#FFFFFF" d="M79.522,43.771c-0.104,0.821-0.227,1.917-0.369,2.729c-0.679,3.061-0.706,3.179-1.312,4.882
		c-0.539,1.328-1.326,3.076-1.967,4.356l-0.956,1.624c-10.116,13.801-47.418,0.235-53.621-3.832
		c-0.329-0.811-0.772-1.891-1.064-2.717c-0.813-2.741-0.88-2.964-1.212-4.884c-0.118-0.965-0.278-2.256-0.349-3.228
		C53.732,58.319,78.439,55.863,79.522,43.771"/>
	<path fill="#FFFFFF" d="M67.678,65.293c-0.618,0.44-1.431,1.04-2.069,1.453c-2.622,1.539-2.725,1.599-4.394,2.333
		c-2.686,1.033-2.902,1.121-4.761,1.596c-0.729,0.154-1.697,0.373-2.432,0.498c-9.757,1.209-19.37-3.19-21.227-4.346l-0.311-0.196
		c-0.8-0.537-0.8-0.537-1.239-0.854c-0.908-0.676-0.923-0.688-1.394-1.073c-1.035-0.876-2.599-2.203-4.39-4.396
		C29.164,63.063,55.774,73.341,67.678,65.293"/>
	<path fill="#FFFFFF" d="M63.229,15.367c4.812,1.81,8.723,6.958,4.248,9.034c-2.693,1.248-8.088,1.133-14.437-0.309
		c-8.945-2.031-18.447-6.379-21.144-7.664c-0.303-0.144-0.429-0.204-0.471-0.214l1.213-0.82c2.62-1.544,2.724-1.604,4.391-2.332
		c2.722-1.055,2.885-1.12,4.666-1.581c4.579,3.177,23.037,9.155,22.298,5.066C63.904,16.048,63.414,15.554,63.229,15.367"/>
	<path fill="#FFFFFF" d="M66.471,16.222c0.714,0.321,1.362,0.724,1.946,1.198c1.276,1.083,2.723,2.313,4.768,4.875
		c0.862,1.173,1.935,2.638,2.975,4.624c1.115,2.327,1.286,2.685,1.979,4.71c2.773,9.895-5.69,12.199-13.279,12.388
		c-17.551,0.44-36.301-7.314-43.362-10.231c-1.488-0.62-1.488-0.62-1.811-0.694l0.614-1.986c1.169-2.986,1.215-3.103,2.096-4.721
		c0.755-1.253,1.825-2.886,2.676-4.077c0.453,0.127,0.453,0.127,2.073,0.825c5.955,2.576,21.774,9.42,35.05,9.614
		c10.363,0.151,14.456-3.485,10.953-9.732C71.759,20.541,69.265,18.002,66.471,16.222"/>
</g>
<g>
	<path fill="#FFFFFF" d="M0.977,97.111V85.08h3.102c1.135,0,1.977,0.098,2.523,0.293s0.981,0.53,1.305,1.004
		c0.25,0.37,0.427,0.848,0.531,1.434c0.104,0.586,0.156,1.681,0.156,3.285s-0.052,2.698-0.156,3.281
		c-0.104,0.583-0.281,1.063-0.531,1.438c-0.323,0.474-0.758,0.809-1.305,1.004s-1.388,0.293-2.523,0.293H0.977z M3.805,87.322v7.594
		c0.057,0.011,0.112,0.016,0.164,0.016c0.052,0,0.133,0,0.242,0c0.302,0,0.553-0.042,0.754-0.125c0.2-0.083,0.363-0.216,0.488-0.398
		c0.104-0.146,0.176-0.427,0.215-0.844s0.059-1.234,0.059-2.453v-0.547c0-1-0.019-1.676-0.055-2.027
		c-0.037-0.352-0.104-0.593-0.203-0.723c-0.109-0.172-0.27-0.3-0.48-0.383s-0.48-0.125-0.809-0.125c-0.099,0-0.176,0.001-0.23,0.004
		S3.846,87.317,3.805,87.322z"/>
	<path fill="#FFFFFF" d="M10.877,97.111l2.625-12.031h3.344l2.594,12.031h-2.813l-0.352-2.305h-2.211l-0.352,2.305H10.877z
		 M14.354,92.635h1.617l-0.805-5.25L14.354,92.635z"/>
	<path fill="#FFFFFF" d="M22.88,97.111v-9.695h-2.25V85.08h7.438v2.336H25.7v9.695H22.88z"/>
	<path fill="#FFFFFF" d="M29.218,97.111l2.625-12.031h3.344l2.594,12.031h-2.813l-0.352-2.305h-2.211l-0.352,2.305H29.218z
		 M32.695,92.635h1.617l-0.805-5.25L32.695,92.635z"/>
	<path fill="#FFFFFF" d="M39.955,93.033h2.578v0.352c0,0.661,0.078,1.128,0.234,1.398s0.419,0.406,0.789,0.406
		c0.297,0,0.531-0.103,0.703-0.309s0.258-0.485,0.258-0.84c0-0.583-0.419-1.144-1.258-1.68c-0.136-0.094-0.239-0.164-0.313-0.211
		c-0.026-0.016-0.07-0.044-0.133-0.086c-1.13-0.761-1.833-1.333-2.109-1.719c-0.198-0.292-0.349-0.62-0.453-0.984
		s-0.156-0.763-0.156-1.195c0-1.052,0.305-1.878,0.914-2.477s1.448-0.898,2.516-0.898c1.161,0,2.048,0.294,2.66,0.883
		s0.918,1.44,0.918,2.555c0,0.047-0.003,0.112-0.008,0.195s-0.008,0.148-0.008,0.195h-2.523v-0.148c0-0.526-0.082-0.925-0.246-1.195
		s-0.402-0.406-0.715-0.406c-0.266,0-0.479,0.095-0.641,0.285s-0.242,0.441-0.242,0.754c0,0.511,0.458,1.052,1.375,1.625
		c0.167,0.109,0.294,0.192,0.383,0.25c0.073,0.042,0.175,0.106,0.305,0.195c0.984,0.625,1.614,1.151,1.891,1.578
		c0.172,0.276,0.304,0.59,0.395,0.941s0.137,0.733,0.137,1.145c0,1.203-0.313,2.13-0.938,2.781s-1.519,0.977-2.68,0.977
		c-1.219,0-2.134-0.312-2.746-0.934s-0.918-1.548-0.918-2.777c0-0.078,0.001-0.16,0.004-0.246S39.939,93.221,39.955,93.033z"/>
	<path fill="#FFFFFF" d="M50.161,97.111V85.08h2.766c1.021,0,1.774,0.044,2.262,0.133s0.897,0.237,1.23,0.445
		c0.442,0.271,0.78,0.673,1.012,1.207s0.348,1.171,0.348,1.91c0,1.219-0.321,2.145-0.965,2.777s-1.587,0.949-2.832,0.949h-0.992
		v4.609H50.161z M52.989,90.26c0.042,0.005,0.09,0.011,0.145,0.016s0.132,0.008,0.23,0.008c0.563,0,0.969-0.132,1.219-0.395
		s0.375-0.687,0.375-1.27c0-0.484-0.133-0.833-0.398-1.047s-0.708-0.32-1.328-0.32h-0.242V90.26z"/>
	<path fill="#FFFFFF" d="M60.718,97.111V85.08h2.813v4.547h2.258V85.08h2.75v12.031h-2.75v-4.992H63.53v4.992H60.718z"/>
	<path fill="#FFFFFF" d="M71.932,97.111V85.08h6.547v2.336h-3.75v2.211h3.461v2.414h-3.461v2.625h3.75v2.445H71.932z"/>
	<path fill="#FFFFFF" d="M81.66,97.111V85.08h3.164c1.036,0,1.789,0.048,2.258,0.145s0.849,0.262,1.141,0.496
		c0.344,0.281,0.601,0.628,0.77,1.039s0.254,0.901,0.254,1.469c0,0.692-0.121,1.273-0.363,1.742s-0.618,0.854-1.129,1.156
		c0.87,0.386,1.328,1.3,1.375,2.742c0,0.021,0,0.034,0,0.039c0.005,0.151,0.011,0.37,0.016,0.656
		c0.021,1.354,0.245,2.203,0.672,2.547h-3.289c-0.073-0.25-0.126-0.512-0.16-0.785s-0.051-0.566-0.051-0.879
		c0-0.192,0.005-0.426,0.016-0.699s0.016-0.452,0.016-0.535c0-0.734-0.097-1.237-0.289-1.508s-0.539-0.406-1.039-0.406h-0.578v4.813
		H81.66z M84.441,90.088c0.047,0,0.108,0.003,0.184,0.008s0.132,0.008,0.168,0.008c0.583,0,0.996-0.117,1.238-0.352
		s0.363-0.63,0.363-1.188c0-0.516-0.121-0.882-0.363-1.098s-0.655-0.324-1.238-0.324c-0.036,0-0.093,0.003-0.168,0.008
		s-0.137,0.008-0.184,0.008V90.088z"/>
	<path fill="#FFFFFF" d="M92.476,97.111V85.08h6.547v2.336h-3.75v2.211h3.461v2.414h-3.461v2.625h3.75v2.445H92.476z"/>
</g>
</svg>
