<?xml version="1.0" encoding="utf-8"?>
<!-- Generator: Adobe Illustrator 16.0.0, SVG Export Plug-In . SVG Version: 6.00 Build 0)  -->
<!DOCTYPE svg PUBLIC "-//W3C//DTD SVG 1.1//EN" "http://www.w3.org/Graphics/SVG/1.1/DTD/svg11.dtd">
<svg version="1.1" id="Layer_1" xmlns="http://www.w3.org/2000/svg" xmlns:xlink="http://www.w3.org/1999/xlink" x="0px" y="0px"
	 width="100px" height="100px" viewBox="0 0 100 100" enable-background="new 0 0 100 100" xml:space="preserve">
<path fill="#FFFFFF" d="M68.858,62.592l-12.765-7.369c-1.218,1.821-3.236,3.055-5.545,3.21v14.791
	c2.09,1.863,4.28,3.607,6.553,5.237c0.006,3.74-0.304,7.495-0.951,11.23l9.852-5.689c0.019,0.011,0.037,0.02,0.056,0.031
	l14.316-8.267c-3.577-1.314-7.001-2.93-10.252-4.817C69.847,68.146,69.433,65.355,68.858,62.592z"/>
<path fill="#FFFFFF" d="M68.858,39.055l-12.765,7.368c-1.218-1.821-3.236-3.054-5.545-3.208v-14.79
	c2.09-1.865,4.28-3.61,6.553-5.239c0.006-3.739-0.304-7.492-0.951-11.229l9.852,5.689c0.019-0.009,0.037-0.021,0.056-0.031
	l14.316,8.265c-3.577,1.316-7.001,2.932-10.252,4.818C69.847,33.5,69.433,36.292,68.858,39.055z"/>
<path fill="#FFFFFF" d="M69.397,61.269L56.597,53.96c0.959-1.97,1.008-4.335-0.022-6.407l12.772-7.457
	c2.664,0.865,5.276,1.878,7.828,3.017c3.231-1.88,6.317-4.04,9.219-6.482l0.052,11.376c0.021,0.013,0.038,0.021,0.056,0.034
	l0.081,16.53c-2.94-2.425-6.062-4.568-9.329-6.424C74.695,59.322,72.074,60.37,69.397,61.269z"/>
<path fill="#FFFFFF" d="M30.341,61.269l12.8-7.309c-0.96-1.97-1.009-4.335,0.022-6.407l-12.771-7.457
	c-2.664,0.865-5.275,1.878-7.828,3.017c-3.23-1.88-6.317-4.04-9.217-6.482l-0.054,11.376c-0.02,0.013-0.037,0.021-0.054,0.034
	L13.16,64.57c2.937-2.425,6.059-4.568,9.328-6.424C25.045,59.322,27.664,60.37,30.341,61.269z"/>
<path fill="#FFFFFF" d="M31.031,62.592l12.765-7.369c1.217,1.821,3.235,3.055,5.544,3.21v14.791
	c-2.09,1.863-4.282,3.607-6.553,5.237c-0.005,3.74,0.304,7.495,0.952,11.23l-9.853-5.689c-0.019,0.011-0.036,0.02-0.056,0.031
	l-14.313-8.268c3.577-1.315,7-2.931,10.251-4.817C30.043,68.146,30.458,65.355,31.031,62.592z"/>
<path fill="#FFFFFF" d="M31.031,39.055l12.765,7.368c1.217-1.821,3.235-3.054,5.544-3.208v-14.79
	c-2.09-1.865-4.282-3.61-6.553-5.239c-0.005-3.739,0.304-7.492,0.952-11.229l-9.853,5.689c-0.019-0.009-0.036-0.021-0.056-0.031
	L19.517,25.88c3.577,1.316,7,2.932,10.251,4.818C30.043,33.5,30.458,36.292,31.031,39.055z"/>
</svg>
