<?xml version="1.0" encoding="utf-8"?>
<!-- Generator: Adobe Illustrator 16.0.0, SVG Export Plug-In . SVG Version: 6.00 Build 0)  -->
<!DOCTYPE svg PUBLIC "-//W3C//DTD SVG 1.1//EN" "http://www.w3.org/Graphics/SVG/1.1/DTD/svg11.dtd">
<svg version="1.1" id="Layer_1" xmlns="http://www.w3.org/2000/svg" xmlns:xlink="http://www.w3.org/1999/xlink" x="0px" y="0px"
	 width="100px" height="100px" viewBox="0 0 100 100" enable-background="new 0 0 100 100" xml:space="preserve">
<g>
	<path fill="#FFFFFF" d="M90.342,47.2c-1.051-5.467-5.116-17.012-6.728-19.133c-1.271-1.673,0.42-5.677-0.842-6.518
		c-1.261-0.841-13.456,3.154-33.639,2.944c-9.881-0.104-28.804-2.313-28.804-2.313c-3.363,0.035-0.911,5.29-1.472,5.466
		c-2.508,0.784-7.569,21.235-9.25,27.332C7.84,61.389,3.3,90.09,3.3,90.09l44.151,3.994l3.154-22.285l3.27,22.117l43.194-4.035
		C97.069,89.881,91.457,52.996,90.342,47.2z M34.641,53.746c-0.764,1.021-1.791,1.531-3.08,1.531c-0.592,0-1.107-0.111-1.547-0.332
		s-0.823-0.563-1.151-1.023v5.248h-3.691V44.312h3.366v1.356c0.375-0.566,0.812-0.98,1.31-1.244
		c0.498-0.264,1.093-0.396,1.784-0.396c1.236,0,2.238,0.516,3.006,1.546s1.151,2.385,1.151,4.063
		C35.788,51.355,35.406,52.725,34.641,53.746z M47.952,54.916h-3.814L43.9,53.902c-0.486,0.475-1.011,0.826-1.573,1.053
		c-0.563,0.229-1.195,0.342-1.898,0.342c-1.078,0-1.911-0.295-2.501-0.883c-0.588-0.588-0.883-1.42-0.883-2.492
		c0-1.047,0.29-1.821,0.87-2.322s1.676-0.865,3.287-1.093c0.205-0.032,0.48-0.068,0.826-0.107c1.201-0.143,1.802-0.488,1.802-1.034
		c0-0.305-0.109-0.528-0.33-0.668c-0.219-0.14-0.566-0.21-1.041-0.21c-0.393,0-0.694,0.086-0.905,0.259s-0.334,0.438-0.369,0.795
		h-3.709c0.018-1.19,0.457-2.089,1.318-2.697c0.861-0.608,2.127-0.912,3.797-0.912c0.785,0,1.51,0.081,2.175,0.244
		s1.183,0.38,1.552,0.654c0.451,0.338,0.768,0.72,0.949,1.146c0.182,0.426,0.272,1.036,0.272,1.83v5.912
		c0,0.195,0.035,0.369,0.105,0.521c0.07,0.153,0.173,0.278,0.308,0.376V54.916z M60.046,54.916h-3.797v-5.492
		c0-0.806-0.097-1.361-0.29-1.663c-0.193-0.303-0.527-0.454-1.002-0.454c-0.48,0-0.838,0.175-1.072,0.527
		c-0.234,0.351-0.352,0.888-0.352,1.609v5.473h-3.797V44.312h3.454v1.551c0.445-0.618,0.941-1.078,1.49-1.381
		c0.547-0.302,1.167-0.454,1.858-0.454c0.58,0,1.099,0.107,1.556,0.322c0.457,0.214,0.844,0.533,1.16,0.956
		c0.287,0.384,0.49,0.85,0.611,1.4c0.119,0.55,0.18,1.449,0.18,2.697V54.916z M68.237,54.994c-0.469,0.033-0.896,0.057-1.278,0.074
		c-0.385,0.016-0.743,0.023-1.077,0.023c-1.207,0-2.05-0.225-2.526-0.673c-0.479-0.448-0.717-1.235-0.717-2.36v-5.317h-1.345v-2.429
		h1.345v-3.278h3.779v3.278h1.784v2.429h-1.784v4.244c0,0.358,0.094,0.61,0.281,0.756c0.188,0.146,0.521,0.22,1.002,0.22
		c0.141,0,0.247-0.002,0.32-0.006c0.073-0.002,0.146-0.008,0.216-0.014V54.994z M77.944,54.37c-0.852,0.618-2.113,0.927-3.783,0.927
		c-1.547,0-2.727-0.309-3.537-0.927c-0.813-0.618-1.259-1.548-1.341-2.79h3.691c0,0.449,0.104,0.783,0.312,1.005
		s0.521,0.331,0.937,0.331c0.398,0,0.704-0.074,0.919-0.224c0.213-0.149,0.32-0.368,0.32-0.653c0-0.475-0.472-0.826-1.415-1.054
		c-0.082-0.02-0.146-0.036-0.193-0.049c-1.787-0.423-2.953-0.878-3.498-1.366s-0.817-1.203-0.817-2.146c0-1.138,0.4-2.005,1.199-2.6
		c0.801-0.595,1.968-0.893,3.503-0.893c1.424,0,2.526,0.279,3.31,0.839c0.781,0.56,1.231,1.392,1.349,2.498h-3.419
		c-0.029-0.319-0.154-0.572-0.373-0.761c-0.221-0.188-0.497-0.283-0.831-0.283s-0.589,0.063-0.765,0.19
		c-0.176,0.127-0.264,0.311-0.264,0.551c0,0.423,0.431,0.735,1.292,0.937c0.229,0.052,0.401,0.091,0.519,0.117
		c1.734,0.442,2.862,0.912,3.384,1.41s0.782,1.228,0.782,2.19C79.224,52.836,78.798,53.752,77.944,54.37z"/>
	<path fill="#FFFFFF" d="M30.462,47.18c-0.557,0-0.962,0.197-1.218,0.59c-0.254,0.394-0.382,1.016-0.382,1.868
		c0,0.8,0.13,1.4,0.392,1.8c0.26,0.399,0.651,0.601,1.173,0.601c0.516,0,0.905-0.202,1.169-0.605s0.396-1.001,0.396-1.795
		c0-0.833-0.126-1.45-0.378-1.854S30.978,47.18,30.462,47.18z"/>
	<path fill="#FFFFFF" d="M43.786,50.185c-0.363,0.156-0.847,0.322-1.45,0.498c-0.949,0.28-1.424,0.653-1.424,1.122
		c0,0.299,0.094,0.533,0.281,0.702s0.454,0.253,0.8,0.253c0.633,0,1.095-0.162,1.384-0.487c0.291-0.325,0.436-0.842,0.436-1.551
		c0-0.15-0.002-0.262-0.004-0.337C43.805,50.31,43.798,50.244,43.786,50.185z"/>
</g>
</svg>
