<?xml version="1.0" encoding="utf-8"?>
<!-- Generator: Adobe Illustrator 16.0.0, SVG Export Plug-In . SVG Version: 6.00 Build 0)  -->
<!DOCTYPE svg PUBLIC "-//W3C//DTD SVG 1.1//EN" "http://www.w3.org/Graphics/SVG/1.1/DTD/svg11.dtd">
<svg version="1.1" id="Layer_1" xmlns="http://www.w3.org/2000/svg" xmlns:xlink="http://www.w3.org/1999/xlink" x="0px" y="0px"
	 width="100px" height="100px" viewBox="0 0 100 100" enable-background="new 0 0 100 100" xml:space="preserve">
<path fill="#FFFFFF" d="M12.5,16.714v35.734h35.734V16.714H12.5z M37.872,27.493h-8.198v4.406h7.598v4.877h-7.598v10.243h-6.207
	v-24.23h14.406L37.872,27.493L37.872,27.493z"/>
<path fill="#FFFFFF" d="M51.016,55.016V90.75H86.75V55.016H51.016z M77.284,85.188H73.03l-0.273-1.511
	c-0.618,0.65-1.301,1.136-2.049,1.455c-0.749,0.32-1.599,0.48-2.547,0.48c-1.075,0-2.067-0.183-2.976-0.552
	c-0.908-0.366-1.7-0.896-2.375-1.588c-0.836-0.851-1.423-1.994-1.767-3.431c-0.343-1.437-0.514-3.871-0.514-7.301
	c0-2.444,0.119-4.4,0.359-5.869s0.612-2.569,1.115-3.304c0.731-1.059,1.7-1.857,2.907-2.393c1.206-0.535,2.638-0.801,4.296-0.801
	c2.595,0,4.549,0.647,5.863,1.942c1.315,1.297,1.974,3.228,1.974,5.798c0,0.094-0.006,0.238-0.018,0.432
	c-0.012,0.196-0.017,0.351-0.017,0.465h-5.865v-0.298c0-1.396-0.163-2.393-0.489-2.99c-0.326-0.597-0.855-0.897-1.585-0.897
	c-0.87,0-1.467,0.369-1.794,1.103c-0.326,0.733-0.488,2.448-0.488,5.144v2.392v1.668c0,2.696,0.155,4.395,0.463,5.099
	c0.309,0.702,0.881,1.054,1.716,1.054s1.44-0.31,1.817-0.929c0.376-0.618,0.566-1.62,0.566-3.005c0-0.314-0.004-0.556-0.009-0.724
	c-0.007-0.168-0.015-0.33-0.025-0.488h-2.418v-4.232h8.386L77.284,85.188L77.284,85.188z"/>
<g>
	<path fill="#FFFFFF" d="M30.215,64.953c-0.949,0-1.606,0.325-1.972,0.977c-0.366,0.65-0.548,2.303-0.548,4.956v4.374
		c0,2.622,0.182,4.267,0.548,4.933s1.035,0.999,2.006,0.999c0.96,0,1.624-0.325,1.989-0.976s0.549-2.303,0.549-4.956v-4.374
		c0-2.686-0.186-4.346-0.557-4.98C31.86,65.271,31.187,64.953,30.215,64.953z"/>
	<path fill="#FFFFFF" d="M12.5,55.016V90.75h35.734V55.016H12.5z M38.756,79.437c-0.229,1.349-0.618,2.404-1.166,3.171
		c-0.743,1.06-1.724,1.852-2.941,2.376c-1.218,0.524-2.684,0.787-4.399,0.787c-1.714,0-3.184-0.263-4.408-0.787
		s-2.212-1.316-2.967-2.376c-0.526-0.755-0.903-1.804-1.132-3.147c-0.229-1.342-0.342-3.471-0.342-6.388
		c0-2.916,0.113-5.045,0.342-6.387c0.229-1.343,0.606-2.393,1.132-3.147c0.754-1.07,1.744-1.865,2.967-2.384
		s2.693-0.778,4.408-0.778c1.727,0,3.193,0.26,4.399,0.778c1.206,0.519,2.188,1.313,2.941,2.384c0.549,0.765,0.938,1.82,1.166,3.162
		c0.229,1.342,0.343,3.467,0.343,6.372C39.1,75.968,38.984,78.09,38.756,79.437z"/>
</g>
<g>
	<path fill="#FFFFFF" d="M51.016,16.714v35.734H86.75V16.714H51.016z M71.745,47.019c-0.16-0.503-0.278-1.031-0.353-1.581
		s-0.111-1.141-0.111-1.77c0-0.389,0.012-0.858,0.034-1.408c0.022-0.551,0.034-0.91,0.034-1.078c0-1.479-0.211-2.491-0.634-3.037
		c-0.423-0.545-1.184-0.818-2.281-0.818h-1.27v9.692H61.06v-24.23h6.947c2.274,0,3.928,0.096,4.956,0.291
		c1.028,0.194,1.864,0.527,2.504,1c0.755,0.566,1.317,1.264,1.689,2.093c0.371,0.829,0.557,1.814,0.557,2.958
		c0,1.396-0.266,2.565-0.798,3.509c-0.531,0.944-1.356,1.72-2.478,2.329c1.909,0.776,2.915,2.617,3.018,5.522
		c0,0.042,0,0.068,0,0.079c0.012,0.304,0.023,0.745,0.035,1.321c0.046,2.728,0.537,4.437,1.475,5.129H71.745z"/>
	<path fill="#FFFFFF" d="M67.937,26.943c-0.081,0-0.202,0.005-0.369,0.016c-0.166,0.011-0.3,0.016-0.403,0.016v5.9
		c0.104,0,0.237,0.005,0.403,0.017c0.167,0.011,0.288,0.016,0.369,0.016c1.281,0,2.188-0.236,2.72-0.708
		c0.531-0.472,0.798-1.269,0.798-2.392c0-1.039-0.267-1.775-0.798-2.21C70.124,27.161,69.218,26.943,67.937,26.943z"/>
</g>
</svg>
