<?xml version="1.0" encoding="utf-8"?>
<!-- Generator: Adobe Illustrator 16.0.0, SVG Export Plug-In . SVG Version: 6.00 Build 0)  -->
<!DOCTYPE svg PUBLIC "-//W3C//DTD SVG 1.1//EN" "http://www.w3.org/Graphics/SVG/1.1/DTD/svg11.dtd">
<svg version="1.1" id="Layer_1" xmlns="http://www.w3.org/2000/svg" xmlns:xlink="http://www.w3.org/1999/xlink" x="0px" y="0px"
	 width="100px" height="100px" viewBox="0 0 100 100" enable-background="new 0 0 100 100" xml:space="preserve">
<g>
	<path fill="#FFFFFF" d="M83.137,59.698c-3.621,15.316-17.398,26.749-33.805,26.749S19.149,75.015,15.529,59.698H7.634
		c3.75,19.606,21.017,34.472,41.698,34.472c20.683,0,37.948-14.865,41.697-34.472H83.137z"/>
	<path fill="#FFFFFF" d="M15.317,42.79C18.595,27.014,32.6,15.124,49.332,15.124c16.732,0,30.738,11.89,34.016,27.666h7.846
		C87.814,22.733,70.336,7.404,49.332,7.404c-21.002,0-38.481,15.33-41.861,35.386H15.317z"/>
</g>
<g>
	<path fill="#FFFFFF" d="M7.695,54.933v-7.882h5.961v1.985h-3.431v1.221h2.73v1.903h-2.73v2.772H7.695z"/>
	<path fill="#FFFFFF" d="M21.135,54.933l2.771-7.882h2.563l2.771,7.882h-2.51l-0.294-1.044h-2.509l-0.305,1.044H21.135z
		 M24.388,52.237h1.589l-0.786-2.729L24.388,52.237z"/>
	<path fill="#FFFFFF" d="M37.33,52.477h2.462c0.066,0.286,0.19,0.492,0.369,0.616c0.178,0.124,0.443,0.186,0.797,0.186
		c0.295,0,0.529-0.051,0.697-0.152c0.169-0.101,0.254-0.24,0.254-0.419c0-0.286-0.355-0.517-1.064-0.695
		c-0.143-0.036-0.252-0.063-0.327-0.081c-0.581-0.149-1.044-0.285-1.389-0.408c-0.344-0.123-0.594-0.237-0.751-0.346
		c-0.303-0.217-0.531-0.478-0.682-0.781c-0.152-0.304-0.228-0.649-0.228-1.037c0-0.782,0.295-1.395,0.883-1.841
		c0.589-0.446,1.399-0.67,2.429-0.67c1.013,0,1.811,0.214,2.392,0.64c0.582,0.427,0.91,1.037,0.984,1.832h-2.402
		c-0.039-0.231-0.141-0.404-0.308-0.519c-0.166-0.114-0.403-0.171-0.709-0.171c-0.271,0-0.473,0.044-0.604,0.134
		c-0.132,0.089-0.198,0.225-0.198,0.407c0,0.26,0.346,0.478,1.038,0.651c0.06,0.019,0.107,0.031,0.138,0.038
		c0.1,0.025,0.252,0.063,0.456,0.112c0.917,0.232,1.516,0.442,1.798,0.633c0.349,0.23,0.604,0.495,0.765,0.791
		c0.161,0.296,0.241,0.646,0.241,1.048c0,0.872-0.304,1.54-0.912,2.007c-0.607,0.467-1.48,0.701-2.613,0.701
		c-1.045,0-1.875-0.234-2.486-0.701C37.749,53.984,37.405,53.325,37.33,52.477z"/>
	<path fill="#FFFFFF" d="M54.906,54.933v-5.806h-2.269v-2.076h7.068v2.076h-2.27v5.806H54.906z"/>
	<path fill="#FFFFFF" d="M68.26,54.933v-7.882h6.3v1.889h-3.77v1.05h3.185v1.808H70.79v1.222h3.923v1.914H68.26z"/>
	<path fill="#FFFFFF" d="M83.632,54.933v-7.882h2.403l2.209,3.666c0.067,0.104,0.142,0.249,0.218,0.438s0.157,0.417,0.244,0.686
		c-0.023-0.14-0.038-0.292-0.048-0.461c-0.013-0.168-0.018-0.371-0.018-0.609v-3.72h2.414v7.882h-2.414l-2.21-3.638
		c-0.068-0.107-0.142-0.259-0.223-0.456c-0.079-0.195-0.16-0.42-0.242-0.673c0.024,0.139,0.043,0.285,0.053,0.435
		c0.011,0.152,0.017,0.365,0.017,0.641v3.691H83.632z"/>
</g>
<g>
	<polygon fill="#FFFFFF" points="71.63,42.79 62.572,27.103 36.091,27.103 27.035,42.79 	"/>
	<polygon fill="#FFFFFF" points="27.365,59.698 36.091,74.812 62.572,74.812 71.299,59.698 	"/>
</g>
</svg>
