<?xml version="1.0" encoding="utf-8"?>
<!-- Generator: Adobe Illustrator 15.0.0, SVG Export Plug-In . SVG Version: 6.00 Build 0)  -->
<!DOCTYPE svg PUBLIC "-//W3C//DTD SVG 1.1//EN" "http://www.w3.org/Graphics/SVG/1.1/DTD/svg11.dtd">
<svg version="1.1" id="Layer_1" xmlns="http://www.w3.org/2000/svg" xmlns:xlink="http://www.w3.org/1999/xlink" x="0px" y="0px"
	 width="100px" height="100px" viewBox="0 0 100 100" enable-background="new 0 0 100 100" xml:space="preserve">
<g>
	<rect x="27.422" y="44.791" fill="#FFFFFF" width="2.233" height="8.133"/>
	<path fill="#FFFFFF" d="M31.417,44.791h2.124v1.132h0.047c0.272-0.44,0.631-0.776,1.078-1.007c0.445-0.23,0.915-0.347,1.408-0.347
		c0.576,0,1.059,0.079,1.447,0.236s0.695,0.381,0.92,0.669c0.226,0.289,0.383,0.635,0.472,1.038
		c0.089,0.404,0.133,0.873,0.133,1.408v5.003h-2.233V48.33c0-0.682-0.11-1.186-0.331-1.51c-0.22-0.325-0.588-0.488-1.102-0.488
		c-0.608,0-1.048,0.181-1.321,0.543c-0.273,0.361-0.409,0.957-0.409,1.785v4.264h-2.234V44.791z"/>
	<path fill="#FFFFFF" d="M41.758,46.537h-1.736v-1.857h5.772v1.857H43.89v6.276h-2.131V46.537z"/>
	<path fill="#FFFFFF" d="M48.916,49.399c0.032,0.703,0.215,1.222,0.551,1.558s0.818,0.504,1.447,0.504
		c0.43,0,0.813-0.107,1.148-0.322c0.336-0.217,0.541-0.459,0.613-0.733h1.967c-0.305,0.934-0.779,1.624-1.424,2.069
		s-1.439,0.668-2.383,0.668c-0.629,0-1.202-0.102-1.715-0.307c-0.514-0.203-0.952-0.498-1.313-0.881
		c-0.362-0.383-0.64-0.838-0.833-1.369c-0.194-0.529-0.291-1.102-0.291-1.721c0-0.608,0.099-1.175,0.298-1.699
		c0.2-0.524,0.483-0.98,0.85-1.369c0.367-0.388,0.808-0.689,1.322-0.904c0.514-0.215,1.075-0.323,1.684-0.323
		c0.639,0,1.209,0.118,1.707,0.354s0.912,0.559,1.242,0.968s0.582,0.881,0.756,1.416c0.172,0.535,0.26,1.101,0.26,1.698
		c0,0.043-0.006,0.105-0.016,0.189c0,0.094,0,0.163,0,0.204H48.916z M52.551,47.984c-0.105-0.588-0.297-1.023-0.574-1.306
		c-0.279-0.283-0.68-0.426-1.205-0.426c-0.334,0-0.621,0.059-0.856,0.174c-0.236,0.115-0.428,0.262-0.574,0.44
		c-0.147,0.179-0.252,0.364-0.315,0.559c-0.063,0.193-0.1,0.38-0.11,0.559H52.551z"/>
	<path fill="#FFFFFF" d="M61.594,47.653c-0.146-0.934-0.697-1.4-1.652-1.4c-0.336,0-0.629,0.079-0.881,0.236
		s-0.451,0.364-0.598,0.621s-0.254,0.541-0.322,0.85c-0.068,0.31-0.104,0.622-0.104,0.937s0.035,0.621,0.104,0.92
		s0.174,0.572,0.314,0.819c0.143,0.246,0.332,0.445,0.574,0.598s0.529,0.229,0.865,0.229c0.504,0,0.908-0.148,1.211-0.441
		c0.305-0.293,0.492-0.698,0.566-1.211h2.156c-0.137,1.071-0.555,1.893-1.252,2.469c-0.697,0.578-1.586,0.865-2.666,0.865
		c-0.598,0-1.15-0.102-1.66-0.307c-0.508-0.203-0.945-0.492-1.313-0.865c-0.367-0.371-0.648-0.813-0.842-1.32
		c-0.195-0.509-0.291-1.068-0.291-1.675c0-0.63,0.092-1.215,0.275-1.755s0.453-1.01,0.811-1.408c0.355-0.398,0.793-0.705,1.313-0.92
		s1.104-0.323,1.754-0.323c1.027,0,1.906,0.268,2.635,0.803c0.73,0.535,1.125,1.296,1.189,2.281H61.594z"/>
	<path fill="#FFFFFF" d="M65.637,45.742c0.764-0.781,1.781-1.173,3.051-1.173c1.279,0,2.303,0.392,3.068,1.173
		s1.148,1.822,1.148,3.123c0,1.289-0.383,2.325-1.148,3.106s-1.789,1.172-3.068,1.172c-1.27,0-2.287-0.391-3.051-1.172
		c-0.768-0.781-1.15-1.817-1.15-3.106C64.486,47.564,64.869,46.523,65.637,45.742z M66.824,49.84
		c0.066,0.304,0.178,0.579,0.33,0.826c0.152,0.246,0.355,0.439,0.613,0.582c0.256,0.141,0.563,0.213,0.92,0.213
		c0.367,0,0.68-0.072,0.936-0.213c0.258-0.143,0.463-0.336,0.613-0.582c0.152-0.247,0.264-0.522,0.332-0.826
		c0.068-0.305,0.102-0.63,0.102-0.976c0-0.347-0.033-0.674-0.102-0.983s-0.18-0.588-0.332-0.834c-0.15-0.246-0.355-0.44-0.613-0.582
		c-0.256-0.142-0.568-0.213-0.936-0.213c-0.357,0-0.664,0.071-0.92,0.213c-0.258,0.142-0.461,0.336-0.613,0.582
		s-0.264,0.524-0.33,0.834c-0.068,0.31-0.104,0.637-0.104,0.983C66.721,49.21,66.756,49.536,66.824,49.84z"/>
	<path fill="#FFFFFF" d="M0.91,66.916c4.391-4.262,7.138-10.342,7.138-17.088c0-6.562-2.597-12.49-6.778-16.732l4.798-4.735
		c5.734,5.373,9.317,13.015,9.317,21.492c0,8.634-3.716,16.402-9.637,21.789L0.91,66.916z"/>
	<path fill="#FFFFFF" d="M99.09,33.084c-4.391,4.263-7.137,10.341-7.137,17.088c0,6.562,2.596,12.492,6.777,16.732l-4.799,4.736
		c-5.732-5.373-9.316-13.016-9.316-21.493c0-8.635,3.717-16.401,9.637-21.788L99.09,33.084z"/>
</g>
</svg>
