<?xml version="1.0" encoding="utf-8"?>
<!-- Generator: Adobe Illustrator 15.0.0, SVG Export Plug-In . SVG Version: 6.00 Build 0)  -->
<!DOCTYPE svg PUBLIC "-//W3C//DTD SVG 1.1//EN" "http://www.w3.org/Graphics/SVG/1.1/DTD/svg11.dtd">
<svg version="1.1" id="Layer_1" xmlns="http://www.w3.org/2000/svg" xmlns:xlink="http://www.w3.org/1999/xlink" x="0px" y="0px"
	 width="100px" height="100px" viewBox="0 0 100 100" enable-background="new 0 0 100 100" xml:space="preserve">
<g>
	<path fill="#FFFFFF" d="M74.462,44.032l1.201-4.137h0.018l1.199,4.137H74.462z M78.281,48.915h3.521l-3.632-11.981h-4.999
		l-3.631,11.981h3.52l0.643-2.215h3.938L78.281,48.915z"/>
	<path fill="#FFFFFF" d="M15.627,42.922c0-0.656,0.018-1.046,0.03-1.335c0.092-1.85,0.822-2.065,2.241-2.065
		c1.42,0,2.151,0.216,2.244,2.065c0.013,0.289,0.029,0.679,0.029,1.335c0,0.661-0.017,1.049-0.029,1.342
		c-0.093,1.845-0.824,2.063-2.244,2.063c-1.419,0-2.149-0.218-2.241-2.063C15.645,43.971,15.627,43.583,15.627,42.922 M17.898,49.13
		c3.616,0,5.359-0.635,5.607-3.897c0.06-0.776,0.071-1.572,0.072-2.311c0-0.733-0.013-1.528-0.072-2.308
		c-0.248-3.26-1.991-3.898-5.607-3.898c-3.613,0-5.357,0.639-5.604,3.898c-0.06,0.779-0.07,1.574-0.07,2.308
		c0,0.738,0.011,1.534,0.07,2.311C12.541,48.495,14.285,49.13,17.898,49.13"/>
	<polygon fill="#FFFFFF" points="0.333,36.934 0.333,39.921 3.914,39.921 3.914,48.915 7.499,48.915 7.499,39.921 11.08,39.921 
		11.08,36.934 	"/>
	<rect x="51.908" y="36.934" fill="#FFFFFF" width="3.401" height="11.981"/>
	<polygon fill="#FFFFFF" points="41.63,41.309 41.63,36.934 38.246,36.934 38.246,48.915 41.63,48.915 41.63,44.297 45.559,44.297 
		45.559,48.915 48.937,48.915 48.937,36.934 45.559,36.934 45.559,41.309 	"/>
	<path fill="#FFFFFF" d="M61.703,39.674h2.343c0.616,0,0.992,0.291,0.992,0.986c0,0.601-0.373,0.967-0.992,0.967h-2.343V39.674z
		 M61.703,43.995h2.343c0.95,0,1.146,0.415,1.146,1.091c0,0.67-0.369,1.085-1.146,1.085h-2.343V43.995z M66.493,42.653
		c1.506-0.384,1.947-1.287,1.947-2.587c0-2.632-1.656-3.133-4.013-3.133h-6.102v11.981h6.406c2.948,0,3.94-1.271,3.94-3.226
		C68.673,44.328,68.361,43.125,66.493,42.653"/>
	<path fill="#FFFFFF" d="M25.548,44.983h3.222c0.003,0.584,0.08,0.972,0.36,1.182c0.32,0.243,0.607,0.326,1.56,0.326
		c0.918,0,1.92,0,1.92-1.134c0-0.89-0.56-1.089-1.597-1.146c-2.567-0.136-3.497-0.211-4.454-0.922
		c-0.65-0.483-0.987-1.425-0.987-2.702c0-2.168,0.756-2.928,1.848-3.459c1.126-0.546,5.547-0.546,6.735,0
		c1.498,0.69,1.543,2.181,1.543,3.566H32.48c-0.006-0.705-0.166-0.905-0.295-1.038c-0.334-0.294-0.81-0.356-1.496-0.356
		c-0.831,0-1.79,0.037-1.79,1.046c0,0.768,0.328,1.093,1.205,1.147c1.2,0.077,3.564,0.151,4.408,0.649
		C35.697,42.844,36,43.79,36,45.335c0,2.231-0.797,2.884-1.905,3.374c-1.282,0.569-5.567,0.569-6.958-0.044
		C25.578,47.987,25.548,46.631,25.548,44.983"/>
	<polygon fill="#FFFFFF" points="84.793,54.893 87.044,54.893 90.436,58.092 87.041,61.305 84.79,61.305 88.185,58.092 	"/>
	<polygon fill="#FFFFFF" points="89.408,54.893 91.659,54.893 95.051,58.092 91.656,61.305 89.404,61.305 92.799,58.092 	"/>
	<polygon fill="#FFFFFF" points="94.024,54.893 96.274,54.893 99.667,58.092 96.271,61.305 94.02,61.305 97.416,58.092 	"/>
	<polygon fill="#FFFFFF" points="0.637,54.924 2.075,54.924 2.075,60.094 4.613,60.094 4.613,61.305 0.637,61.305 	"/>
	<path fill="#FFFFFF" d="M8.248,58.457c0-0.341-0.151-0.939-0.805-0.939c-0.615,0-0.862,0.559-0.899,0.939H8.248z M6.554,59.44
		c0.048,0.606,0.634,0.89,1.306,0.89c0.492,0,0.89-0.067,1.278-0.198l0.188,0.975c-0.473,0.198-1.05,0.292-1.675,0.292
		c-1.571,0-2.471-0.906-2.471-2.365c0-1.175,0.737-2.472,2.338-2.472c1.497,0,2.064,1.165,2.064,2.311
		c0,0.247-0.028,0.464-0.047,0.578L6.554,59.44z"/>
	<path fill="#FFFFFF" d="M12.906,59.119c-0.758,0-1.345,0.179-1.345,0.728c0,0.37,0.246,0.55,0.568,0.55
		c0.351,0,0.652-0.237,0.748-0.531c0.019-0.075,0.028-0.159,0.028-0.245V59.119z M14.298,60.188c0,0.437,0.019,0.862,0.076,1.117
		h-1.298l-0.085-0.463h-0.028c-0.303,0.368-0.775,0.567-1.325,0.567c-0.938,0-1.496-0.682-1.496-1.42
		c0-1.203,1.079-1.771,2.717-1.771v-0.058c0-0.245-0.132-0.595-0.842-0.595c-0.474,0-0.976,0.16-1.278,0.34l-0.266-0.919
		c0.322-0.179,0.957-0.416,1.799-0.416c1.544,0,2.026,0.909,2.026,1.998V60.188z"/>
	<path fill="#FFFFFF" d="M18.492,58.646c0-0.086,0-0.181-0.02-0.266c-0.085-0.389-0.397-0.7-0.842-0.7
		c-0.663,0-0.995,0.587-0.995,1.316c0,0.775,0.389,1.267,0.985,1.267c0.416,0,0.758-0.281,0.843-0.689
		c0.019-0.096,0.028-0.209,0.028-0.322V58.646z M19.931,54.583v5.341c0,0.529,0.02,1.069,0.038,1.381H18.69l-0.057-0.671h-0.028
		c-0.284,0.511-0.852,0.775-1.448,0.775c-1.1,0-1.979-0.938-1.979-2.376c-0.009-1.553,0.966-2.462,2.074-2.462
		c0.577,0,1.013,0.209,1.221,0.521h0.02v-2.509H19.931z"/>
	<path fill="#FFFFFF" d="M21.086,56.676h1.439v4.629h-1.439V56.676z M21.086,61.305 M21.796,56.069
		c-0.482,0-0.795-0.341-0.795-0.767c0-0.436,0.321-0.767,0.814-0.767c0.492,0,0.795,0.331,0.805,0.767
		c0,0.426-0.313,0.767-0.815,0.767H21.796z"/>
	<path fill="#FFFFFF" d="M23.68,58.153c0-0.578-0.019-1.062-0.037-1.478h1.25l0.065,0.644h0.028c0.189-0.304,0.653-0.748,1.43-0.748
		c0.946,0,1.657,0.635,1.657,1.998v2.735h-1.439V58.74c0-0.598-0.208-1.005-0.729-1.005c-0.396,0-0.634,0.275-0.737,0.54
		c-0.038,0.095-0.048,0.228-0.048,0.359v2.67H23.68V58.153z"/>
	<path fill="#FFFFFF" d="M32.172,58.56c0-0.085-0.01-0.18-0.028-0.265c-0.104-0.379-0.378-0.635-0.776-0.635
		c-0.53,0-0.946,0.474-0.946,1.316c0,0.691,0.341,1.23,0.938,1.23c0.379,0,0.672-0.246,0.767-0.578
		c0.037-0.112,0.047-0.265,0.047-0.388V58.56z M33.611,60.634c0,0.889-0.18,1.618-0.711,2.083c-0.5,0.435-1.192,0.567-1.874,0.567
		c-0.615,0-1.249-0.123-1.666-0.351l0.284-1.099c0.293,0.171,0.795,0.351,1.345,0.351c0.682,0,1.202-0.36,1.202-1.222v-0.293h-0.02
		c-0.273,0.379-0.72,0.597-1.25,0.597c-1.145,0-1.959-0.928-1.959-2.254c0-1.496,0.957-2.442,2.102-2.442
		c0.635,0,1.032,0.274,1.269,0.653h0.019l0.049-0.549h1.249c-0.019,0.303-0.038,0.69-0.038,1.383V60.634z"/>
	<rect x="36.796" y="54.924" fill="#FFFFFF" width="1.439" height="6.381"/>
	<path fill="#FFFFFF" d="M39.437,58.153c0-0.578-0.018-1.062-0.037-1.478h1.25l0.067,0.644h0.027
		c0.189-0.304,0.653-0.748,1.43-0.748c0.946,0,1.656,0.635,1.656,1.998v2.735h-1.438V58.74c0-0.598-0.208-1.005-0.729-1.005
		c-0.397,0-0.634,0.275-0.738,0.54c-0.038,0.095-0.047,0.228-0.047,0.359v2.67h-1.44V58.153z"/>
	<path fill="#FFFFFF" d="M44.984,58.153c0-0.578-0.018-1.062-0.037-1.478h1.25l0.066,0.644h0.028
		c0.189-0.304,0.653-0.748,1.43-0.748c0.946,0,1.657,0.635,1.657,1.998v2.735h-1.439V58.74c0-0.598-0.208-1.005-0.729-1.005
		c-0.397,0-0.634,0.275-0.738,0.54c-0.038,0.095-0.047,0.228-0.047,0.359v2.67h-1.44V58.153z"/>
	<path fill="#FFFFFF" d="M52.69,60.378c0.569,0,0.92-0.56,0.92-1.392c0-0.683-0.266-1.383-0.92-1.383
		c-0.682,0-0.945,0.7-0.945,1.393c0,0.785,0.331,1.382,0.936,1.382H52.69z M52.662,61.409c-1.353,0-2.394-0.89-2.394-2.387
		c0-1.495,0.983-2.451,2.479-2.451c1.41,0,2.357,0.976,2.357,2.377c0,1.686-1.202,2.461-2.433,2.461H52.662z"/>
	<path fill="#FFFFFF" d="M57.065,56.676l0.625,2.147c0.115,0.389,0.189,0.76,0.266,1.129h0.029c0.073-0.379,0.148-0.73,0.254-1.129
		l0.598-2.147h1.513l-1.722,4.629h-1.439l-1.685-4.629H57.065z"/>
	<path fill="#FFFFFF" d="M63.475,59.119c-0.758,0-1.344,0.179-1.344,0.728c0,0.37,0.246,0.55,0.568,0.55
		c0.35,0,0.652-0.237,0.747-0.531c0.019-0.075,0.028-0.159,0.028-0.245V59.119z M64.866,60.188c0,0.437,0.02,0.862,0.075,1.117
		h-1.296l-0.085-0.463h-0.03c-0.302,0.368-0.775,0.567-1.324,0.567c-0.938,0-1.495-0.682-1.495-1.42
		c0-1.203,1.078-1.771,2.717-1.771v-0.058c0-0.245-0.134-0.595-0.843-0.595c-0.475,0-0.976,0.16-1.278,0.34l-0.266-0.919
		c0.322-0.179,0.958-0.416,1.8-0.416c1.543,0,2.025,0.909,2.025,1.998V60.188z"/>
	<path fill="#FFFFFF" d="M67.622,55.416v1.26h1.031v1.06h-1.031v1.687c0,0.56,0.142,0.813,0.569,0.813
		c0.197,0,0.293-0.01,0.424-0.038l0.01,1.089c-0.179,0.066-0.529,0.123-0.928,0.123c-0.464,0-0.852-0.16-1.089-0.397
		c-0.265-0.274-0.397-0.72-0.397-1.373v-1.903h-0.615v-1.06h0.615v-0.872L67.622,55.416z"/>
	<path fill="#FFFFFF" d="M69.487,56.676h1.438v4.629h-1.438V56.676z M69.487,61.305 M70.197,56.069
		c-0.483,0-0.797-0.341-0.797-0.767c0-0.436,0.322-0.767,0.815-0.767c0.492,0,0.796,0.331,0.805,0.767
		c0,0.426-0.313,0.767-0.815,0.767H70.197z"/>
	<path fill="#FFFFFF" d="M74.239,60.378c0.567,0,0.919-0.56,0.919-1.392c0-0.683-0.265-1.383-0.919-1.383
		c-0.682,0-0.946,0.7-0.946,1.393c0,0.785,0.33,1.382,0.937,1.382H74.239z M74.21,61.409c-1.353,0-2.394-0.89-2.394-2.387
		c0-1.495,0.984-2.451,2.479-2.451c1.411,0,2.358,0.976,2.358,2.377c0,1.686-1.202,2.461-2.434,2.461H74.21z"/>
	<path fill="#FFFFFF" d="M77.41,58.153c0-0.578-0.02-1.062-0.038-1.478h1.249l0.067,0.644h0.027c0.189-0.304,0.654-0.748,1.43-0.748
		c0.946,0,1.657,0.635,1.657,1.998v2.735h-1.439V58.74c0-0.598-0.208-1.005-0.729-1.005c-0.396,0-0.634,0.275-0.737,0.54
		c-0.039,0.095-0.047,0.228-0.047,0.359v2.67H77.41V58.153z"/>
</g>
</svg>
