<?xml version="1.0" encoding="utf-8"?>
<!-- Generator: Adobe Illustrator 15.0.0, SVG Export Plug-In . SVG Version: 6.00 Build 0)  -->
<!DOCTYPE svg PUBLIC "-//W3C//DTD SVG 1.1//EN" "http://www.w3.org/Graphics/SVG/1.1/DTD/svg11.dtd">
<svg version="1.1" id="Layer_1" xmlns="http://www.w3.org/2000/svg" xmlns:xlink="http://www.w3.org/1999/xlink" x="0px" y="0px"
	 width="63.92px" height="25px" viewBox="43.04 47.833 63.92 25" enable-background="new 43.04 47.833 63.92 25"
	 xml:space="preserve">
<g>
	<path fill="#FFFFFF" d="M100.041,53.066c-3.628,0-6.571,2.941-6.571,6.57s2.943,6.57,6.571,6.57s6.57-2.941,6.57-6.57
		S103.669,53.066,100.041,53.066z M100.041,62.768c-1.729,0-2.926-1.402-2.926-3.131c0-1.729,1.197-3.131,2.926-3.131
		s2.926,1.401,2.926,3.131C102.967,61.366,101.77,62.768,100.041,62.768z"/>
	<path fill="#FFFFFF" d="M70.594,49.523v4.995c-0.176-0.215-1.276-1.452-3.35-1.452c-1.349,0-2.602,0.407-3.645,1.103
		c-1.042-0.697-2.295-1.103-3.644-1.103c-3.628,0-6.57,2.941-6.57,6.57s2.942,6.57,6.57,6.57c1.349,0,2.602-0.407,3.644-1.104
		c1.043,0.696,2.296,1.104,3.645,1.104c2.01,0,3.218-1.258,3.576-1.727v1.171h3.444V49.523H70.594z M67.726,62.768
		c-1.272,0-2.261-0.728-2.715-1.783c-0.207-0.439-0.681-0.784-1.205-0.784c-0.54,0-1.002,0.35-1.201,0.811
		c-0.449,1.04-1.413,1.756-2.649,1.756c-1.729,0-2.925-1.402-2.925-3.131c0-1.729,1.196-3.131,2.925-3.131
		c1.252,0,2.226,0.735,2.667,1.798c0.188,0.479,0.659,0.801,1.204,0.801c0.555,0,1.028-0.372,1.207-0.865
		c0.463-1.027,1.44-1.733,2.693-1.733c1.764,0,2.984,1.401,2.984,3.131C70.709,61.366,69.489,62.768,67.726,62.768z"/>
	<rect x="75.316" y="53.538" fill="#FFFFFF" width="3.662" height="12.148"/>
	<rect x="75.316" y="49.523" fill="#FFFFFF" width="3.662" height="2.714"/>
	<path fill="#FFFFFF" d="M89.073,53.538v1.145c0,0-1.217-1.616-3.106-1.616c-3.629,0-6.427,2.941-6.427,6.57s2.85,6.57,6.316,6.57
		c2.257,0,3.217-1.766,3.217-1.766s0.441,3.605-2.937,3.605c-1.546,0-2.077-1.197-2.077-1.197l-4.294,0.018
		c0.624,2.477,2.583,4.276,6.415,4.276c3.62,0,6.554-2.438,6.554-5.458V53.538H89.073z M86.109,62.768
		c-1.729,0-2.926-1.402-2.926-3.131c0-1.729,1.197-3.131,2.926-3.131c1.729,0,2.926,1.401,2.926,3.131
		C89.035,61.366,87.839,62.768,86.109,62.768z"/>
	<path fill="#FFFFFF" d="M52.443,61.34c-0.498,0.859-1.382,1.428-2.483,1.428c-1.729,0-2.926-1.402-2.926-3.131
		c0-1.729,1.196-3.131,2.926-3.131c1.1,0,1.984,0.567,2.482,1.427c0.284-1.29,0.884-2.444,1.705-3.359
		c-1.137-0.941-2.596-1.507-4.188-1.507c-3.629,0-6.571,2.941-6.571,6.57s2.941,6.57,6.57,6.57c1.592,0,3.052-0.566,4.189-1.509
		C53.328,63.783,52.728,62.629,52.443,61.34z"/>
</g>
</svg>
