<?xml version="1.0" encoding="utf-8"?>
<!-- Generator: Adobe Illustrator 16.0.0, SVG Export Plug-In . SVG Version: 6.00 Build 0)  -->
<!DOCTYPE svg PUBLIC "-//W3C//DTD SVG 1.1//EN" "http://www.w3.org/Graphics/SVG/1.1/DTD/svg11.dtd">
<svg version="1.1" id="Layer_1" xmlns="http://www.w3.org/2000/svg" xmlns:xlink="http://www.w3.org/1999/xlink" x="0px" y="0px"
	 width="100px" height="100px" viewBox="0 0 100 100" enable-background="new 0 0 100 100" xml:space="preserve">
<g>
	<path fill="#FFFFFF" d="M50.349,55.985c5.479-4.412,15.098-1.561,15.098-1.561s0.733,10.005-4.747,14.421
		c-5.484,4.409-15.106,1.556-15.106,1.556S44.865,60.396,50.349,55.985z"/>
	<path fill="#FFFFFF" d="M28.592,45.58c4.858-5.092,14.766-3.52,14.766-3.52s2.035,9.826-2.822,14.916
		c-4.864,5.09-14.772,3.519-14.772,3.519S23.735,50.669,28.592,45.58z"/>
	<path fill="#FFFFFF" d="M31.288,25.101c-0.038-1.67,1.89-3.071,1.89-3.071s1.993,1.307,2.03,2.979c0.04,1.672-1.89,3.07-1.89,3.07
		S31.328,26.772,31.288,25.101z"/>
	<path fill="#FFFFFF" d="M24.502,74.266c4.754,5.186,4.407,13.245-0.779,18c-5.188,4.757-13.249,4.408-18.003-0.775
		c-4.754-5.187-4.407-13.246,0.782-18.005C11.688,68.731,19.744,69.081,24.502,74.266z"/>
	<path fill="#FFFFFF" d="M49.399,64.309c4.754,5.186,4.406,13.247-0.782,18.004c-5.188,4.758-13.248,4.407-18.003-0.777
		c-4.757-5.19-4.407-13.25,0.778-18.009C36.579,58.771,44.639,59.118,49.399,64.309z"/>
	<path fill="#FFFFFF" d="M68.569,61.02c3.05,3.324,2.829,8.491-0.494,11.537c-3.327,3.05-8.493,2.825-11.542-0.5
		c-3.045-3.321-2.823-8.49,0.502-11.538C60.354,57.47,65.523,57.697,68.569,61.02z"/>
	<circle fill="#FFFFFF" cx="20.822" cy="57.483" r="8.165"/>
	<path fill="#FFFFFF" d="M48.599,80.022c2.041,2.227,1.891,5.689-0.337,7.729c-2.226,2.041-5.688,1.895-7.729-0.333
		c-2.044-2.228-1.892-5.688,0.334-7.731C43.095,77.645,46.555,77.796,48.599,80.022z"/>
	<path fill="#FFFFFF" d="M30.843,88.387c2.039,2.223,1.896,5.688-0.334,7.729c-2.226,2.042-5.691,1.887-7.73-0.337
		c-2.044-2.227-1.895-5.689,0.332-7.731C25.337,86.003,28.8,86.156,30.843,88.387z"/>
	<path fill="#FFFFFF" d="M24.357,64.8c2.04,2.223,1.892,5.687-0.333,7.729c-2.23,2.044-5.692,1.89-7.734-0.336
		c-2.041-2.227-1.89-5.686,0.336-7.729C18.853,62.422,22.314,62.57,24.357,64.8z"/>
	<path fill="#FFFFFF" d="M61.735,45.269c2.042,2.23,1.896,5.688-0.332,7.729c-2.228,2.043-5.688,1.893-7.732-0.335
		c-2.041-2.227-1.89-5.69,0.338-7.73C56.234,42.89,59.693,43.043,61.735,45.269z"/>
	<path fill="#FFFFFF" d="M30.228,38.003c1.302,1.417,1.209,3.621-0.212,4.921c-1.417,1.301-3.62,1.207-4.92-0.214
		c-1.303-1.417-1.205-3.622,0.213-4.919C26.729,36.487,28.928,36.583,30.228,38.003z"/>
	<path fill="#FFFFFF" d="M63.001,4.482c0.842,0.919,0.783,2.345-0.139,3.188c-0.918,0.842-2.346,0.781-3.187-0.138
		c-0.843-0.918-0.782-2.348,0.137-3.19C60.734,3.5,62.159,3.565,63.001,4.482z"/>
	<path fill="#FFFFFF" d="M90.984,56.619c0.614,0.668,0.572,1.71-0.096,2.324c-0.67,0.615-1.712,0.566-2.326-0.104
		c-0.613-0.667-0.572-1.709,0.1-2.324C89.329,55.902,90.373,55.952,90.984,56.619z"/>
	<path fill="#FFFFFF" d="M33.76,37.344c0.72-3.313,5.951-4.985,5.951-4.985s4.059,3.694,3.34,7.005
		c-0.718,3.3-5.947,4.969-5.947,4.969S33.043,40.642,33.76,37.344z"/>
	<path fill="#FFFFFF" d="M76.667,67.637c3.422-0.814,7.202,2.78,7.202,2.78s-1.754,4.908-5.178,5.726
		c-3.407,0.811-7.186-2.786-7.186-2.786S73.259,68.449,76.667,67.637z"/>
	<path fill="#FFFFFF" d="M47.651,30.503c0.352-2.545,4.206-4.111,4.206-4.111s3.285,2.55,2.936,5.098
		c-0.352,2.531-4.207,4.1-4.207,4.1S47.302,33.038,47.651,30.503z"/>
	<path fill="#FFFFFF" d="M63.726,33.253c0.289-1.86,3.141-2.963,3.141-2.963s2.377,1.916,2.088,3.78
		c-0.293,1.859-3.143,2.956-3.143,2.956S63.436,35.111,63.726,33.253z"/>
	<path fill="#FFFFFF" d="M88.402,43.863C86.63,44.5,84.3,42.516,84.3,42.516s0.55-3.002,2.322-3.638
		c1.777-0.629,4.102,1.349,4.102,1.349S90.176,43.233,88.402,43.863z"/>
	<path fill="#FFFFFF" d="M77.134,50.887c-1.328,1.337-4.206,0.627-4.206,0.627s-0.73-2.875,0.601-4.215
		c1.325-1.334,4.207-0.621,4.207-0.621S78.467,49.554,77.134,50.887z"/>
	<path fill="#FFFFFF" d="M53.219,38.135c0.993,1.083,0.92,2.764-0.164,3.758c-1.081,0.99-2.761,0.918-3.752-0.163
		c-0.992-1.083-0.921-2.764,0.16-3.756C50.547,36.981,52.229,37.055,53.219,38.135z"/>
	<path fill="#FFFFFF" d="M40.434,90.409c1.301,1.418,1.206,3.618-0.213,4.918c-1.417,1.301-3.621,1.207-4.92-0.21
		c-1.302-1.42-1.206-3.625,0.212-4.923C36.93,88.893,39.132,88.989,40.434,90.409z"/>
	<circle fill="#FFFFFF" cx="79.855" cy="26.015" r="1.005"/>
	<path fill="#FFFFFF" d="M44.601,12.723c0.578,0.632,0.535,1.609-0.096,2.184c-0.627,0.577-1.605,0.537-2.184-0.096
		c-0.577-0.628-0.534-1.604,0.095-2.184C43.045,12.054,44.021,12.092,44.601,12.723z"/>
</g>
<g>
	<path fill="#FFFFFF" stroke="#FFFFFF" d="M59.042,85.578c0.308-0.644,0.413-1.365,0.315-2.163c-0.112-0.798-0.49-1.246-1.135-1.344
		c-0.644-0.112-1.169-0.06-1.574,0.157c-0.406,0.218-0.673,0.605-0.799,1.166c-0.056,0.28-0.08,0.588-0.073,0.924
		s0.046,0.707,0.115,1.112c0.141,0.799,0.959,1.758,2.457,2.878c1.484,1.105,2.289,2.204,2.415,3.297
		c0.126,1.092,0.088,1.963-0.115,2.614s-0.501,1.151-0.893,1.501c-0.392,0.351-0.994,0.581-1.806,0.693
		c-2.549,0.406-3.745-1.211-3.591-4.851l1.532-0.021c-0.322,1.484-0.329,2.437-0.021,2.856c0.322,0.49,0.756,0.763,1.302,0.818
		c0.546,0.07,1.015-0.017,1.407-0.262c0.392-0.245,0.693-0.669,0.903-1.271c0.21-0.616,0.202-1.33-0.021-2.143
		c-0.21-0.812-1.001-1.735-2.373-2.771c-1.344-1.036-2.135-2.114-2.373-3.234c-0.224-1.12-0.23-2.033-0.021-2.74
		s0.496-1.2,0.86-1.48c0.378-0.28,0.844-0.452,1.396-0.515c0.554-0.063,1.103-0.024,1.648,0.115c0.561,0.141,0.99,0.371,1.292,0.693
		c0.301,0.322,0.507,0.749,0.619,1.28c0.112,0.631,0.126,1.548,0.042,2.752L59.042,85.578z"/>
	<path fill="#FFFFFF" stroke="#FFFFFF" d="M65.048,88.14c-0.154,2.801,0.378,4.788,1.596,5.965c0.63,0.616,1.239,0.91,1.827,0.882
		c0.602-0.014,1.113-0.287,1.533-0.819s0.65-1.155,0.692-1.869c0.042-0.63-0.014-1.273-0.168-1.932l1.513,0.063
		c-0.028,0.742-0.134,1.604-0.315,2.583c-0.168,0.98-0.504,1.729-1.008,2.247c-0.49,0.504-1.12,0.798-1.89,0.883
		c-0.784,0.111-1.499-0.035-2.143-0.441c-0.672-0.406-1.218-0.945-1.638-1.617s-0.735-1.414-0.945-2.226
		c-0.196-0.826-0.28-2.017-0.252-3.57s0.091-2.653,0.189-3.297c0.056-0.476,0.171-0.938,0.346-1.386
		c0.176-0.448,0.396-0.851,0.662-1.208c0.266-0.356,0.577-0.661,0.935-0.913c0.356-0.252,0.752-0.42,1.187-0.504
		c0.42-0.112,0.854-0.144,1.302-0.095s0.868,0.179,1.26,0.389s0.728,0.511,1.008,0.902c0.28,0.393,0.47,0.883,0.567,1.471
		c0.154,0.728,0.248,1.459,0.283,2.194c0.035,0.734,0.06,1.501,0.074,2.299H65.048z M70.382,86.943
		c0.042-0.644,0.031-1.246-0.031-1.807c-0.063-0.56-0.161-1.05-0.294-1.47c-0.134-0.42-0.298-0.767-0.494-1.039
		c-0.196-0.273-0.406-0.452-0.63-0.536c-0.448-0.195-0.959-0.217-1.533-0.063s-0.994,0.44-1.26,0.86
		c-0.196,0.295-0.36,0.616-0.493,0.967c-0.134,0.35-0.242,0.707-0.326,1.07c-0.084,0.364-0.144,0.722-0.178,1.071
		c-0.035,0.351-0.053,0.665-0.053,0.945H70.382z"/>
	<path fill="#FFFFFF" stroke="#FFFFFF" d="M76.157,88.14c-0.154,2.801,0.378,4.788,1.596,5.965c0.63,0.616,1.239,0.91,1.827,0.882
		c0.602-0.014,1.113-0.287,1.533-0.819s0.65-1.155,0.692-1.869c0.042-0.63-0.014-1.273-0.168-1.932l1.513,0.063
		c-0.028,0.742-0.134,1.604-0.315,2.583c-0.168,0.98-0.504,1.729-1.008,2.247c-0.49,0.504-1.12,0.798-1.89,0.883
		c-0.784,0.111-1.499-0.035-2.143-0.441c-0.672-0.406-1.218-0.945-1.638-1.617s-0.735-1.414-0.945-2.226
		c-0.196-0.826-0.28-2.017-0.252-3.57s0.091-2.653,0.189-3.297c0.056-0.476,0.171-0.938,0.346-1.386
		c0.176-0.448,0.396-0.851,0.662-1.208c0.266-0.356,0.577-0.661,0.935-0.913c0.356-0.252,0.752-0.42,1.187-0.504
		c0.42-0.112,0.854-0.144,1.302-0.095s0.868,0.179,1.26,0.389s0.728,0.511,1.008,0.902c0.28,0.393,0.47,0.883,0.567,1.471
		c0.154,0.728,0.248,1.459,0.283,2.194c0.035,0.734,0.06,1.501,0.074,2.299H76.157z M81.491,86.943
		c0.042-0.644,0.031-1.246-0.031-1.807c-0.063-0.56-0.161-1.05-0.294-1.47c-0.134-0.42-0.298-0.767-0.494-1.039
		c-0.196-0.273-0.406-0.452-0.63-0.536c-0.448-0.195-0.959-0.217-1.533-0.063s-0.994,0.44-1.26,0.86
		c-0.196,0.295-0.36,0.616-0.493,0.967c-0.134,0.35-0.242,0.707-0.326,1.07c-0.084,0.364-0.144,0.722-0.178,1.071
		c-0.035,0.351-0.053,0.665-0.053,0.945H81.491z"/>
	<path fill="#FFFFFF" stroke="#FFFFFF" d="M87.938,81c1.021,0.028,1.757,0.112,2.205,0.252c0.462,0.154,0.966,0.428,1.512,0.819
		c0.546,0.406,1.008,1.015,1.386,1.827c0.379,0.826,0.651,2.148,0.819,3.969c0.168,1.834-0.021,3.438-0.566,4.809
		c-0.532,1.372-1.226,2.297-2.079,2.772c-0.813,0.476-1.785,0.714-2.919,0.714l-1.891-0.021c0.042-1.219,0.053-2.454,0.031-3.707
		c-0.021-1.253-0.052-2.517-0.094-3.79c-0.042-1.274-0.084-2.548-0.126-3.822s-0.063-2.541-0.063-3.801L87.938,81z M87.35,82.26
		c0.015,1.162,0.041,2.289,0.079,3.382c0.037,1.092,0.075,2.166,0.113,3.223c0.037,1.058,0.067,2.101,0.089,3.129
		c0.022,1.029,0.026,2.055,0.013,3.077c0.364,0.084,0.924,0.07,1.68-0.042c0.49-0.084,0.963-0.287,1.418-0.609
		c0.454-0.321,0.847-0.756,1.176-1.302s0.581-1.204,0.756-1.974c0.175-0.771,0.234-1.646,0.179-2.625
		c-0.015-0.673-0.046-1.246-0.095-1.723c-0.05-0.476-0.109-0.875-0.18-1.197c-0.154-0.644-0.414-1.218-0.779-1.722
		c-0.338-0.504-0.844-0.938-1.519-1.302C89.619,82.211,88.643,82.106,87.35,82.26z"/>
</g>
<path fill="#FFFFFF" d="M9.934,38.824c-1.648-5.049,2.936-11.072,2.936-11.072s7.258,2.158,8.906,7.205
	c1.645,5.051-2.939,11.076-2.939,11.076S11.582,43.871,9.934,38.824z"/>
<path fill="#FFFFFF" d="M73.663,54.226c0.842,0.92,0.783,2.346-0.139,3.188c-0.918,0.842-2.346,0.78-3.187-0.138
	c-0.843-0.918-0.782-2.349,0.137-3.191C71.396,53.243,72.821,53.309,73.663,54.226z"/>
<path fill="#FFFFFF" d="M22.913,25.226c0.842,0.92,0.783,2.346-0.139,3.188c-0.918,0.842-2.346,0.78-3.187-0.138
	c-0.843-0.918-0.782-2.349,0.137-3.191C20.646,24.243,22.071,24.309,22.913,25.226z"/>
<path fill="#FFFFFF" d="M11.913,18.976c0.842,0.92,0.783,2.346-0.139,3.188c-0.918,0.842-2.346,0.78-3.187-0.138
	c-0.843-0.918-0.782-2.349,0.137-3.191C9.646,17.993,11.071,18.059,11.913,18.976z"/>
</svg>
