<?xml version="1.0" encoding="utf-8"?>
<!-- Generator: Adobe Illustrator 16.0.0, SVG Export Plug-In . SVG Version: 6.00 Build 0)  -->
<!DOCTYPE svg PUBLIC "-//W3C//DTD SVG 1.1//EN" "http://www.w3.org/Graphics/SVG/1.1/DTD/svg11.dtd">
<svg version="1.1" id="Layer_1" xmlns="http://www.w3.org/2000/svg" xmlns:xlink="http://www.w3.org/1999/xlink" x="0px" y="0px"
	 width="100px" height="100px" viewBox="0 0 100 100" enable-background="new 0 0 100 100" xml:space="preserve">
<path fill="#FFFFFF" d="M73.142,25.538C52.636,5.034,28.924-4.5,20.176,4.247c-8.744,8.747,0.788,32.46,21.287,52.964
	C61.97,77.715,85.681,87.25,94.433,78.5C103.178,69.756,93.644,46.042,73.142,25.538z M90.742,74.078
	c-6.665,6.67-24.741-0.596-40.369-16.225C34.745,42.221,27.476,24.15,34.147,17.479c6.664-6.664,24.739,0.601,40.37,16.229
	C90.144,49.338,97.41,67.41,90.742,74.078z"/>
<path fill="#FFFFFF" d="M58.233,46.81c-20.221,6.26-34.449,18.325-31.78,26.952c2.671,8.623,21.229,10.543,41.449,4.287
	c20.215-6.256,34.445-18.326,31.776-26.949C97.009,42.472,78.453,40.556,58.233,46.81z M95.273,52.061
	c2.28,7.371-9.875,17.686-27.144,23.027c-17.274,5.346-33.131,3.707-35.412-3.664c-2.281-7.367,9.875-17.678,27.149-23.022
	C77.142,43.056,92.996,44.694,95.273,52.061z"/>
<path fill="#FFFFFF" d="M58.743,69.484c5.584,13.32,12.788,22.58,16.091,20.684c3.299-1.9,1.445-14.242-4.138-27.563
	c-5.584-13.323-12.793-22.578-16.092-20.679C51.301,43.824,53.159,56.166,58.743,69.484z M55.653,44.833
	c2.817-1.623,8.973,6.285,13.744,17.667c4.771,11.377,6.355,21.922,3.535,23.543c-2.816,1.627-8.972-6.283-13.748-17.664
	C54.417,56.996,52.832,46.455,55.653,44.833z"/>
<path fill="#FFFFFF" d="M37.435,42.232C15.902,63.084,5.667,87.428,14.56,96.615c8.894,9.18,33.555-0.281,55.079-21.127
	c21.527-20.85,31.767-45.195,22.871-54.376C83.618,11.929,58.957,21.388,37.435,42.232z M87.569,25.148
	c7.597,7.847-1.148,28.645-19.538,46.452C49.641,89.416,28.571,97.498,20.97,89.652c-7.597-7.844,1.149-28.643,19.542-46.458
	C58.903,25.382,79.972,17.303,87.569,25.148z"/>
</svg>
