<?xml version="1.0" encoding="utf-8"?>
<!-- Generator: Adobe Illustrator 16.0.0, SVG Export Plug-In . SVG Version: 6.00 Build 0)  -->
<!DOCTYPE svg PUBLIC "-//W3C//DTD SVG 1.1//EN" "http://www.w3.org/Graphics/SVG/1.1/DTD/svg11.dtd">
<svg version="1.1" id="Layer_1" xmlns="http://www.w3.org/2000/svg" xmlns:xlink="http://www.w3.org/1999/xlink" x="0px" y="0px"
	 width="100px" height="100px" viewBox="0 0 100 100" enable-background="new 0 0 100 100" xml:space="preserve">
<path fill="#FFFFFF" d="M48.897,65.848c0,0-9.638-10.438-8.032-21.28c1.606-10.84,9.435-18.669,9.435-18.669
	S59.938,50.791,48.897,65.848z"/>
<path fill="#FFFFFF" d="M63.52,68.588c0,0,1.258-10.086,7.925-14.213c6.668-4.126,14.562-3.464,14.562-3.464
	S76.85,67.674,63.52,68.588z"/>
<path fill="#FFFFFF" d="M59.307,63.377c0,0-6.529-13.765-1.42-24.347c5.105-10.582,15.622-16.093,15.622-16.093
	S75.417,51.492,59.307,63.377z"/>
<path fill="#FFFFFF" d="M39.178,80.617c0,0-14.198,0.473-21.357-7.824c-7.156-8.297-7.967-19.341-7.967-19.341
	S34.995,62.424,39.178,80.617z"/>
<path fill="#FFFFFF" d="M38.122,87.484c0,0-8.614,5.396-16.024,2.834c-7.411-2.563-11.88-9.105-11.88-9.105
	S28.997,77.729,38.122,87.484z"/>
<path fill="#FFFFFF" d="M43.01,71.385c0,0-14.596-4.35-19.05-15.221c-4.454-10.875-1.522-22.38-1.522-22.38
	S44.95,51.46,43.01,71.385z"/>
</svg>
