<?xml version="1.0" encoding="utf-8"?>
<!-- Generator: Adobe Illustrator 15.0.0, SVG Export Plug-In . SVG Version: 6.00 Build 0)  -->
<!DOCTYPE svg PUBLIC "-//W3C//DTD SVG 1.1//EN" "http://www.w3.org/Graphics/SVG/1.1/DTD/svg11.dtd">
<svg version="1.1" id="Layer_1" xmlns="http://www.w3.org/2000/svg" xmlns:xlink="http://www.w3.org/1999/xlink" x="0px" y="0px"
	 width="100px" height="100px" viewBox="0 0 100 100" enable-background="new 0 0 100 100" xml:space="preserve">
<path fill="#FFFFFF" d="M29.633,61.063c-0.233-0.023-0.503-0.035-0.807-0.035H28v4.422c0,0.398,0.022,0.795,0.069,1.194
	c0.08,0.422,0.176,0.758,0.322,1.163h-1.894c0.146-0.407,0.243-0.743,0.323-1.168c0.046-0.396,0.069-0.792,0.069-1.189v-4.422
	h-0.826c-0.304,0-0.573,0.012-0.808,0.035c-0.347,0.031-0.667,0.159-0.984,0.295v-1.385h6.346v1.385
	C30.301,61.222,29.981,61.094,29.633,61.063L29.633,61.063z"/>
<path fill="#FFFFFF" d="M23.14,62.33v4.113c0,0.163,0.011,0.373,0.035,0.63c0.028,0.285,0.081,0.467,0.181,0.733h-1.282
	c-0.16-0.33-0.395-0.673-0.608-0.972l-3.548-4.873v3.488c0,0.398,0.023,0.795,0.071,1.193c0.079,0.422,0.177,0.759,0.321,1.164
	h-1.894c0.146-0.405,0.244-0.744,0.322-1.168c0.047-0.396,0.07-0.792,0.07-1.189v-4.112c0-0.164-0.011-0.373-0.035-0.631
	c-0.028-0.284-0.082-0.468-0.182-0.734h1.354c0.161,0.333,0.394,0.672,0.608,0.974l3.477,4.788V62.33
	c0-0.397-0.023-0.796-0.071-1.193c-0.079-0.423-0.177-0.76-0.322-1.164h1.894c-0.145,0.406-0.243,0.744-0.322,1.168
	C23.163,61.537,23.14,61.934,23.14,62.33L23.14,62.33z"/>
<path fill="#FFFFFF" d="M9.405,62.328c0-0.397-0.022-0.795-0.07-1.191c-0.079-0.424-0.177-0.761-0.322-1.165h1.895
	c-0.146,0.406-0.243,0.743-0.322,1.168c-0.047,0.396-0.069,0.793-0.069,1.188v0.726v1.966c0,0.993,0.804,1.797,1.797,1.797
	s1.797-0.804,1.797-1.797v-1.966l0-0.726c0-0.397-0.023-0.795-0.069-1.191c-0.08-0.424-0.178-0.761-0.322-1.165h1.895
	c-0.146,0.406-0.243,0.743-0.323,1.168c-0.046,0.396-0.07,0.793-0.07,1.188v0.726v1.966c0,1.605-1.301,2.908-2.907,2.908
	s-2.907-1.303-2.907-2.908l0-1.966L9.405,62.328L9.405,62.328z"/>
<path fill="#FFFFFF" d="M1.544,59.973h1.868c0.035,0.147,0.068,0.296,0.108,0.441c0.057,0.174,0.126,0.332,0.385,0.742
	c0.236,0.358,0.897,1.295,1.124,1.613l1.034-1.614c0.154-0.231,0.253-0.413,0.305-0.541c0.08-0.204,0.113-0.428,0.146-0.642h1.723
	C7.969,60.29,7.722,60.614,7.5,60.966c0,0-1.417,2.184-1.795,2.766l2.096,3.09c0.384,0.52,0.844,0.985,0.844,0.985H6.526
	c0.045-0.376,0.055-0.59-0.168-0.943c-0.018-0.036-1.331-2.146-1.331-2.146l-0.996,1.411c-0.373,0.593-0.602,0.991-0.769,1.679
	l-1.805,0.001c0.622-0.653,1.152-1.395,1.641-2.15l1.268-1.887l-1.551-2.203C2.208,60.682,1.544,59.973,1.544,59.973L1.544,59.973z"
	/>
<path fill="#FFFFFF" d="M97.215,61.034c-0.188-0.06-0.508-0.109-0.824-0.111c-0.813-0.003-1.432,0.225-1.955,0.679
	c-0.475,0.413-0.762,0.989-0.783,1.807h3.563V61.034L97.215,61.034z M98.516,67.733l0.027,0.073h-1.545
	c0.102-0.268,0.154-0.45,0.184-0.735c0.023-0.257,0.033-0.466,0.033-0.63v-1.98h-3.563v1.299v0.698
	c0.014,0.454,0.049,0.896,0.111,1.349H92.15c0.146-0.406,0.244-0.745,0.324-1.169c0.045-0.396,0.068-0.793,0.068-1.19v-0.779v-0.265
	v-0.892c0-1.059,0.328-1.935,0.984-2.615c0.682-0.682,1.592-1.047,2.771-1.047c0.291,0,0.52,0.01,0.816,0.042
	c0.404,0.036,0.809,0.091,1.211,0.147v6.402c0,0.164,0.01,0.373,0.035,0.63C98.385,67.313,98.43,67.507,98.516,67.733L98.516,67.733
	z"/>
<path fill="#FFFFFF" d="M90.742,62.33v3.12c0,0.397,0.023,0.794,0.07,1.192c0.078,0.423,0.176,0.76,0.322,1.165H89.24
	c0.145-0.407,0.242-0.744,0.322-1.169c0.047-0.396,0.07-0.792,0.07-1.188v-3.12c0-0.397-0.023-0.795-0.07-1.193
	c-0.08-0.422-0.178-0.759-0.322-1.164h1.895c-0.146,0.406-0.244,0.744-0.324,1.168C90.766,61.537,90.742,61.935,90.742,62.33
	L90.742,62.33z"/>
<path fill="#FFFFFF" d="M79.604,62.33v3.12c0,0.398,0.023,0.794,0.07,1.193c0.082,0.422,0.176,0.759,0.32,1.164h-1.891
	c0.145-0.407,0.242-0.744,0.32-1.169c0.049-0.396,0.072-0.792,0.072-1.188v-3.12c0-0.397-0.023-0.795-0.072-1.192
	c-0.078-0.423-0.176-0.76-0.32-1.165h1.891c-0.145,0.406-0.24,0.744-0.32,1.168C79.625,61.537,79.604,61.935,79.604,62.33
	L79.604,62.33z"/>
<path fill="#FFFFFF" d="M74.049,62.331v4.375h0.822c0.4,0,0.797-0.022,1.193-0.069c0.422-0.08,0.762-0.177,1.164-0.322v1.493h-4.682
	c0.145-0.406,0.242-0.743,0.322-1.168c0.047-0.396,0.068-0.792,0.068-1.189v-3.119c0-0.397-0.021-0.796-0.068-1.193
	c-0.08-0.423-0.178-0.76-0.322-1.165h1.895c-0.146,0.406-0.244,0.744-0.324,1.169C74.072,61.538,74.049,61.935,74.049,62.331
	L74.049,62.331z"/>
<path fill="#FFFFFF" d="M69.885,61.035c-0.189-0.059-0.51-0.109-0.826-0.11c-0.814-0.003-1.434,0.225-1.957,0.679
	c-0.475,0.412-0.762,0.988-0.781,1.806h3.564V61.035L69.885,61.035z M71.182,67.734l0.029,0.073h-1.545
	c0.102-0.268,0.152-0.449,0.184-0.735c0.023-0.257,0.035-0.466,0.035-0.629v-1.981H66.32v1.3v0.697
	c0.012,0.455,0.051,0.896,0.109,1.349h-1.611c0.145-0.407,0.244-0.744,0.322-1.168c0.047-0.396,0.07-0.793,0.07-1.19v-0.78v-0.264
	v-0.892c0-1.059,0.326-1.936,0.982-2.616c0.682-0.681,1.596-1.046,2.773-1.046c0.289,0,0.518,0.01,0.814,0.041
	c0.406,0.036,0.809,0.091,1.213,0.148v6.402c0,0.163,0.012,0.372,0.033,0.629C71.053,67.313,71.096,67.508,71.182,67.734
	L71.182,67.734z"/>
<path fill="#FFFFFF" d="M60.74,63.299c0.449,0.06,0.895,0.097,1.348,0.109h0.697h1.26v0.632c0,2.546-1.803,3.889-3.682,3.889
	c-2.176-0.043-3.943-1.828-3.969-4.034c0.029-2.435,2.16-4.35,4.625-4.003c0.992,0.139,1.822,0.605,2.49,1.345l-0.621,1.294
	c-0.574-0.929-1.389-1.533-2.523-1.533c-1.566,0-2.842,1.286-2.865,2.889c0.023,1.611,1.299,2.898,2.865,2.898
	c1.375,0,2.42-0.873,2.545-2.323l-0.168,0.001h-0.211c-0.305,0-0.574,0.012-0.807,0.034c-0.35,0.031-0.67,0.159-0.984,0.294V63.299
	L60.74,63.299z"/>
<path fill="#FFFFFF" d="M52.121,63.189v1.49c-0.268-0.1-0.451-0.152-0.736-0.182c-0.225-0.02-0.412-0.032-0.564-0.034h-1.456V66.7
	h1.956c0.277-0.001,0.521-0.014,0.738-0.035c0.348-0.031,0.668-0.159,0.982-0.294v1.436h-5.176c0.146-0.406,0.243-0.743,0.323-1.167
	c0.047-0.396,0.069-0.793,0.069-1.189v-3.12c0-0.397-0.023-0.795-0.07-1.193c-0.08-0.423-0.176-0.759-0.322-1.164h5.176v1.439
	c-0.314-0.137-0.635-0.264-0.982-0.295c-0.234-0.023-0.504-0.035-0.809-0.035h-1.885v2.324h1.391c0.162,0,0.373-0.011,0.629-0.035
	C51.781,63.338,52.121,63.189,52.121,63.189L52.121,63.189z"/>
<path fill="#FFFFFF" d="M35.477,61.034c-0.189-0.06-0.508-0.109-0.825-0.111c-0.813-0.003-1.433,0.225-1.957,0.679
	c-0.474,0.413-0.761,0.989-0.781,1.807h3.563V61.034L35.477,61.034z M36.774,67.733l0.028,0.074H35.26
	c0.1-0.268,0.153-0.45,0.182-0.736c0.024-0.257,0.035-0.466,0.035-0.63l0-1.98h-3.563v1.299v0.697
	c0.012,0.455,0.05,0.898,0.109,1.351l-1.611-0.001c0.145-0.406,0.243-0.744,0.323-1.169c0.047-0.396,0.069-0.793,0.069-1.19v-0.779
	v-0.265v-0.892c0-1.059,0.326-1.935,0.983-2.615c0.681-0.682,1.594-1.047,2.772-1.047c0.291,0,0.519,0.01,0.816,0.042
	c0.405,0.036,0.808,0.091,1.211,0.147v6.402c0,0.164,0.011,0.373,0.035,0.63C36.646,67.313,36.689,67.507,36.774,67.733
	L36.774,67.733z"/>
<path fill="#FFFFFF" d="M42.268,66.699h0.92c1.468,0.003,2.654-1.25,2.654-2.809s-1.187-2.813-2.639-2.813h-0.935V66.699
	L42.268,66.699z M41.091,66.638c0.047-0.396,0.07-0.792,0.07-1.189V62.33c0-0.397-0.022-0.795-0.07-1.193
	c-0.079-0.423-0.177-0.759-0.322-1.164h2.42c2.085,0.002,3.757,1.759,3.757,3.918s-1.671,3.916-3.742,3.916l-0.079-0.001h-2.357
	C40.915,67.399,41.012,67.062,41.091,66.638L41.091,66.638z"/>
<path fill="#FFFFFF" d="M84.92,66.784c1.135,0,1.949-0.605,2.523-1.534l0.625,1.294c-0.67,0.739-1.498,1.206-2.492,1.345
	c-2.465,0.347-4.596-1.569-4.625-3.994c0.027-2.436,2.16-4.351,4.625-4.004c0.994,0.139,1.822,0.606,2.492,1.346l-0.625,1.294
	c-0.572-0.929-1.389-1.533-2.523-1.533c-1.564,0-2.838,1.286-2.865,2.888C82.08,65.496,83.355,66.784,84.92,66.784L84.92,66.784z"/>
<path fill="#FFFFFF" d="M41.162,31.109v24.565h18.424V31.109H41.162z M49.97,32.583h0.245v-0.246h0.316v0.246h0.246v0.281h-0.246
	v0.246h-0.316v-0.246H49.97V32.583z M46.388,50.469h-0.923v0.924h-0.924v-0.924h-0.925v-0.924h0.925V48.62h0.924v0.925h0.923V50.469
	z M46.388,45.099h-0.923v0.924h-0.924v-0.924h-0.925v-0.924h0.925v-0.924h0.924v0.924h0.923V45.099z M46.388,39.695h-0.923v0.924
	h-0.924v-0.924h-0.925v-0.924h0.925v-0.924h0.924v0.924h0.923V39.695z M53.443,45.077c0,0.749-0.234,1.404-0.701,1.966
	c-0.467,0.561-1.053,0.912-1.754,1.052c-0.047,0.234-0.07,0.409-0.07,0.526c-0.094,0.866,0.012,1.684,0.316,2.456
	c0.326,0.772,0.795,1.427,1.402,1.965c0.025,0,0.035,0.024,0.035,0.07c0,0.07-0.035,0.105-0.105,0.105H48.18
	c-0.071,0-0.106-0.035-0.106-0.105c0-0.046,0.012-0.07,0.035-0.07c0.609-0.538,1.065-1.192,1.37-1.965
	c0.326-0.772,0.444-1.59,0.35-2.456c0-0.117-0.023-0.292-0.069-0.526c-0.702-0.141-1.287-0.491-1.755-1.052
	c-0.467-0.562-0.701-1.217-0.701-1.966v-0.105c0-0.047,0.036-0.07,0.106-0.07h5.931c0.07,0,0.104,0.023,0.104,0.07V45.077z
	 M51.762,38.769v0.924h-0.926v0.924h-0.923v-0.924h-0.925v-0.924h0.925v-0.924h0.923v0.924H51.762z M50.374,41.411
	c0.843,0,1.527,0.683,1.527,1.526c0,0.843-0.684,1.526-1.527,1.526c-0.844,0-1.527-0.684-1.527-1.526
	C48.847,42.094,49.53,41.411,50.374,41.411z M48.004,36.83l-0.069-0.386h4.877l-0.07,0.386H48.004z M53.479,35.286l-0.525,0.772
	h-0.492l0.703-0.983c0.094-0.187,0.141-0.339,0.141-0.456c0-0.21-0.082-0.386-0.248-0.527c-0.139-0.164-0.324-0.246-0.561-0.246
	c-0.117,0-0.209,0.012-0.279,0.036c0.07,0.187,0.104,0.363,0.104,0.527c0,0.234-0.045,0.432-0.139,0.596l-0.598,1.053h-0.457
	l0.703-1.229c0.07-0.14,0.104-0.28,0.104-0.42c0-0.211-0.082-0.387-0.244-0.527c-0.143-0.164-0.314-0.246-0.525-0.246
	c-0.258,0-0.457,0.094-0.598,0.28v2.141h-0.387v-2.141c-0.14-0.187-0.339-0.28-0.597-0.28c-0.21,0-0.397,0.082-0.56,0.246
	c-0.141,0.14-0.211,0.315-0.211,0.527c0,0.14,0.035,0.28,0.105,0.42l0.702,1.229h-0.457l-0.597-1.053
	c-0.093-0.164-0.14-0.362-0.14-0.596c0-0.164,0.035-0.34,0.105-0.527c-0.047-0.023-0.14-0.036-0.28-0.036
	c-0.234,0-0.434,0.082-0.596,0.246c-0.141,0.141-0.211,0.316-0.211,0.527c0,0.116,0.047,0.269,0.141,0.456l0.702,0.983h-0.491
	l-0.526-0.772c-0.14-0.164-0.21-0.386-0.21-0.667c0-0.328,0.116-0.597,0.351-0.807c0.234-0.234,0.514-0.352,0.842-0.352
	c0.164,0,0.339,0.036,0.526,0.106c0.21-0.211,0.48-0.316,0.806-0.316c0.305,0,0.574,0.094,0.808,0.281
	c0.188-0.187,0.446-0.281,0.774-0.281c0.326,0,0.596,0.105,0.807,0.316c0.164-0.07,0.338-0.106,0.525-0.106
	c0.326,0,0.609,0.117,0.844,0.352c0.232,0.21,0.35,0.479,0.35,0.807C53.689,34.899,53.619,35.122,53.479,35.286z M57.125,50.469
	h-0.924v0.924h-0.924v-0.924h-0.924v-0.924h0.924V48.62h0.924v0.925h0.924V50.469z M57.125,45.099h-0.924v0.924h-0.924v-0.924
	h-0.924v-0.924h0.924v-0.924h0.924v0.924h0.924V45.099z M57.125,39.695h-0.924v0.924h-0.924v-0.924h-0.924v-0.924h0.924v-0.924
	h0.924v0.924h0.924V39.695z"/>
</svg>
