<?xml version="1.0" encoding="utf-8"?>
<!-- Generator: Adobe Illustrator 16.0.0, SVG Export Plug-In . SVG Version: 6.00 Build 0)  -->
<!DOCTYPE svg PUBLIC "-//W3C//DTD SVG 1.1//EN" "http://www.w3.org/Graphics/SVG/1.1/DTD/svg11.dtd">
<svg version="1.1" id="Layer_1" xmlns="http://www.w3.org/2000/svg" xmlns:xlink="http://www.w3.org/1999/xlink" x="0px" y="0px"
	 width="150px" height="125px" viewBox="0 0 150 125" enable-background="new 0 0 150 125" xml:space="preserve">
<g>
	<path fill="#FFFFFF" d="M54.512,58.202c0,0.975,0.245,1.755,0.735,2.34c0.491,0.585,1.148,0.877,1.975,0.877
		c1.222,0,2.108-0.425,2.659-1.276c0.551-0.852,0.827-2.278,0.827-4.282V52.43c-2.152,0.62-3.722,1.392-4.711,2.314
		C55.005,55.666,54.512,56.819,54.512,58.202z"/>
	<path fill="#FFFFFF" d="M138.657,6.045H11.434c-4.381,0-7.934,3.416-7.934,7.63v69.149c0,4.214,3.552,7.631,7.934,7.631h60.565
		l45.279,29.024l-6.966-29.024h28.346c4.383,0,7.935-3.417,7.935-7.631V13.675C146.592,9.461,143.04,6.045,138.657,6.045z
		 M42.622,67.245h-8.287V48.227c0-2.465-0.155-3.999-0.464-4.602c-0.31-0.603-0.861-0.904-1.653-0.904
		c-0.929,0-1.656,0.466-2.181,1.397c-0.525,0.931-0.788,2.23-0.788,3.896v19.23h-8.313V26.283h8.313v13.459
		c0.706-1.294,1.613-2.265,2.723-2.913c1.111-0.646,2.44-0.971,3.989-0.971c2.306,0,3.992,0.794,5.06,2.381
		c1.067,1.587,1.601,4.1,1.601,7.541V67.245z M61.766,67.245l-0.491-2.819c-1.05,1.135-2.198,1.991-3.446,2.567
		c-1.248,0.576-2.604,0.865-4.066,0.865c-2.341,0-4.195-0.78-5.563-2.341c-1.368-1.561-2.052-3.67-2.052-6.33
		c0-2.323,0.581-4.238,1.742-5.746c1.162-1.507,3.068-2.81,5.718-3.91c0.637-0.248,1.498-0.576,2.582-0.984
		c3.115-1.171,4.673-2.492,4.673-3.964c0-0.904-0.224-1.591-0.671-2.061s-1.094-0.705-1.936-0.705c-1.016,0-1.769,0.315-2.259,0.944
		c-0.491,0.629-0.736,1.601-0.736,2.913v0.213h-8.364c0-3.476,0.938-6.061,2.813-7.754c1.875-1.694,4.725-2.541,8.545-2.541
		c1.721,0,3.256,0.164,4.608,0.492c1.351,0.328,2.482,0.803,3.396,1.422c1.17,0.816,1.991,1.801,2.465,2.954
		c0.473,1.152,0.709,3.254,0.709,6.303v0.931v10.932c0,2.411,0.082,4.251,0.246,5.519c0.163,1.268,0.436,2.3,0.814,3.098H61.766z
		 M88.655,45.621c-0.465-0.106-0.908-0.186-1.329-0.239c-0.423-0.053-0.805-0.08-1.148-0.08c-1.344,0-2.277,0.487-2.803,1.462
		c-0.523,0.975-0.787,2.882-0.787,5.719v14.762h-8.312V36.471h7.667v4.309c0.913-1.543,1.915-2.713,3.008-3.511
		c1.093-0.797,2.327-1.268,3.705-1.41V45.621z M107.18,67.245l-5.344-12.528l-1.368,1.968v10.56h-8.184V26.283h8.184v20.269
		l6.557-10.081h8.364l-8.726,11.756l8.882,19.018H107.18z M128.441,67.245h-9.087v-9.362h9.087V67.245z M128.441,37.109
		l-2.117,16.624h-4.803l-2.322-16.624V26.283h9.242V37.109z"/>
</g>
</svg>
