<?xml version="1.0" encoding="utf-8"?>
<!-- Generator: Adobe Illustrator 16.0.0, SVG Export Plug-In . SVG Version: 6.00 Build 0)  -->
<!DOCTYPE svg PUBLIC "-//W3C//DTD SVG 1.1//EN" "http://www.w3.org/Graphics/SVG/1.1/DTD/svg11.dtd">
<svg version="1.1" id="Layer_1" xmlns="http://www.w3.org/2000/svg" xmlns:xlink="http://www.w3.org/1999/xlink" x="0px" y="0px"
	 width="100px" height="100px" viewBox="0 0 100 100" enable-background="new 0 0 100 100" xml:space="preserve">
<g>
	<path fill="#FFFFFF" d="M69.818,19.541c2.111,0.809,4.152,2.658,4.525,3.977c0.959,3.41,1.319,7.603,1.127,12.292
		c-0.218,5.151-1.104,10.645-2.703,16.208C69.453,63.533,63.36,74.49,54.609,81.64c-8.099,6.6-19.019,9.026-28.248,5.771
		c-9.767-3.457-18-12.349-23.354-22.94c-1.213-2.397-2.463-2.428-2.811,0l0,0c-0.337,2.362,0.626,6.09,2.166,8.222
		c6.658,9.201,16.298,15.768,26.141,16.271c9.755,0.489,19.807-5.127,26.863-13.744c7.491-9.16,11.999-20.823,13.76-32.186
		c0.812-5.244,0.982-10.171,0.518-14.516c-0.403-3.765-1.237-6.914-2.636-8.975C66.503,18.788,67.741,18.743,69.818,19.541
		L69.818,19.541z"/>
	<path fill="#FFFFFF" d="M80.751,26.413c1.844,1.669,3.335,4.77,3.348,6.802c0.021,4.916-0.612,10.256-1.942,15.753
		c-1.384,5.717-3.474,11.405-6.308,16.734c-5.548,10.43-13.992,19.026-23.803,22.067c-9.326,2.882-20.161-0.028-28.125-6.947
		C15.33,73.35,9.459,62.251,6.37,50.712c-0.67-2.493-1.929-2.523-2.81,0l0,0c-0.875,2.508-0.755,6.623,0.272,9.098
		c4.603,11.092,12.035,20.919,21.531,25.872c8.846,4.604,19.945,4.015,28.517-1.381c9.254-5.842,16.176-16.166,20.29-27.477
		c2.027-5.587,3.32-11.24,3.924-16.678c0.563-5.058,0.517-9.723-0.148-13.734C77.681,24.822,78.94,24.777,80.751,26.413
		L80.751,26.413z"/>
	<path fill="#FFFFFF" d="M89.736,37.359c1.4,2.263,2.144,6.154,1.663,8.595c-2.272,11.489-7.31,22.994-15.251,31.563
		c-7.425,7.998-17.827,12.619-27.447,11.188c-9.88-1.479-19.077-8.894-25.325-18.617c-3.239-5.042-5.736-10.604-7.537-16.32
		c-1.755-5.584-2.792-11.146-3.146-16.409c-0.148-2.214-1.415-2.247-2.81,0l0,0c-1.404,2.263-2.142,6.157-1.663,8.595
		c2.273,11.493,7.309,22.994,15.253,31.568c7.422,7.993,17.829,12.614,27.448,11.184c9.874-1.479,19.075-8.894,25.321-18.62
		c3.24-5.039,5.74-10.601,7.536-16.317c1.756-5.584,2.789-11.146,3.146-16.409C87.074,35.146,88.339,35.112,89.736,37.359
		L89.736,37.359z"/>
	<path fill="#FFFFFF" d="M96.066,50.712c0.871,2.508,0.748,6.62-0.277,9.098c-4.603,11.092-12.034,20.919-21.531,25.872
		c-8.843,4.604-19.942,4.019-28.515-1.381C36.488,78.46,29.57,68.136,25.455,56.825c-2.028-5.587-3.323-11.24-3.927-16.678
		c-0.563-5.058-0.516-9.723,0.152-13.73c0.263-1.595-0.999-1.639-2.81,0l0,0c-1.842,1.666-3.335,4.766-3.347,6.799
		c-0.023,4.916,0.614,10.256,1.945,15.753c1.383,5.717,3.47,11.405,6.303,16.734c5.552,10.43,13.995,19.03,23.808,22.072
		c9.321,2.877,20.156-0.033,28.121-6.952c8.591-7.473,14.457-18.571,17.555-30.11C93.919,48.219,95.179,48.189,96.066,50.712
		L96.066,50.712z"/>
	<path fill="#FFFFFF" d="M99.425,64.47c0.338,2.359-0.628,6.09-2.167,8.222c-6.657,9.201-16.295,15.768-26.142,16.271
		c-9.749,0.492-19.807-5.127-26.86-13.744c-7.491-9.16-12.002-20.823-13.763-32.186c-0.811-5.244-0.979-10.171-0.518-14.516
		c0.403-3.765,1.236-6.914,2.635-8.975c0.512-0.752-0.727-0.797-2.81,0l0,0c-2.11,0.809-4.152,2.658-4.525,3.977
		c-0.958,3.41-1.315,7.603-1.122,12.292c0.214,5.151,1.104,10.645,2.702,16.208c3.31,11.516,9.406,22.473,18.156,29.622
		c8.099,6.6,19.02,9.03,28.25,5.771c9.766-3.457,17.999-12.349,23.354-22.94C97.829,62.069,99.076,62.039,99.425,64.47L99.425,64.47
		z"/>
</g>
</svg>
