<?xml version="1.0" encoding="utf-8"?>
<!-- Generator: Adobe Illustrator 15.0.0, SVG Export Plug-In . SVG Version: 6.00 Build 0)  -->
<!DOCTYPE svg PUBLIC "-//W3C//DTD SVG 1.1//EN" "http://www.w3.org/Graphics/SVG/1.1/DTD/svg11.dtd">
<svg version="1.1" id="Layer_1" xmlns="http://www.w3.org/2000/svg" xmlns:xlink="http://www.w3.org/1999/xlink" x="0px" y="0px"
	 width="100px" height="100px" viewBox="0 0 100 100" enable-background="new 0 0 100 100" xml:space="preserve">
<path fill="#FFFFFF" d="M25.022,92.47v3.132c0,0.537-0.204,0.838-0.708,0.838s-0.75-0.301-0.75-0.838V92.47h-1.438v3.477
	c0,1.266,0.944,1.866,1.973,1.866c0.645,0,1.203-0.257,1.6-0.879c0.482,0.622,1.041,0.879,1.684,0.879
	c1.029,0,1.974-0.601,1.974-1.866V92.47h-1.437v3.132c0,0.537-0.248,0.838-0.75,0.838c-0.505,0-0.709-0.301-0.709-0.838V92.47
	H25.022z"/>
<path fill="#FFFFFF" d="M32.83,92.47v3.132c0,0.537-0.204,0.838-0.708,0.838c-0.504,0-0.751-0.301-0.751-0.838V92.47h-1.436v3.477
	c0,1.266,0.943,1.866,1.973,1.866c0.643,0,1.2-0.257,1.598-0.879c0.483,0.622,1.041,0.879,1.684,0.879
	c1.03,0,1.975-0.601,1.975-1.866V92.47h-1.438v3.132c0,0.537-0.246,0.838-0.75,0.838s-0.708-0.301-0.708-0.838V92.47H32.83z"/>
<path fill="#FFFFFF" d="M40.638,92.47v3.132c0,0.537-0.205,0.838-0.709,0.838c-0.505,0-0.75-0.301-0.75-0.838V92.47H37.74v3.477
	c0,1.266,0.945,1.866,1.974,1.866c0.644,0,1.203-0.257,1.598-0.879c0.483,0.622,1.04,0.879,1.685,0.879
	c1.03,0,1.974-0.601,1.974-1.866V92.47h-1.437v3.132c0,0.537-0.248,0.838-0.751,0.838c-0.504,0-0.709-0.301-0.709-0.838V92.47
	H40.638z"/>
<path fill="#FFFFFF" d="M46.481,95.946c-0.525,0-0.89,0.396-0.89,0.89c0,0.494,0.365,0.891,0.89,0.891
	c0.525,0,0.889-0.396,0.889-0.891C47.371,96.343,47.006,95.946,46.481,95.946"/>
<path fill="#FFFFFF" d="M54.813,97.684v-2.552c0-0.795,0.45-1.267,1.137-1.267h0.332v-1.46h-0.289c-0.579,0-1.084,0.376-1.318,1.052
	h-0.022V92.47h-1.298v5.214H54.813z"/>
<path fill-rule="evenodd" clip-rule="evenodd" fill="#FFFFFF" d="M58.872,93.714c0.762,0,1.266,0.495,1.266,1.363
	c0,0.869-0.504,1.362-1.266,1.362c-0.761,0-1.266-0.493-1.266-1.362C57.606,94.209,58.111,93.714,58.872,93.714 M58.872,92.342
	c-1.621,0-2.64,1.243-2.64,2.735c0,1.491,1.019,2.735,2.64,2.735s2.64-1.244,2.64-2.735C61.512,93.585,60.493,92.342,58.872,92.342"
	/>
<path fill-rule="evenodd" clip-rule="evenodd" fill="#FFFFFF" d="M64.3,93.714c0.762,0,1.265,0.495,1.265,1.363
	c0,0.869-0.503,1.362-1.265,1.362s-1.268-0.493-1.268-1.362C63.032,94.209,63.538,93.714,64.3,93.714 M64.3,92.342
	c-1.62,0-2.64,1.243-2.64,2.735c0,1.491,1.02,2.735,2.64,2.735c1.618,0,2.637-1.244,2.637-2.735
	C66.937,93.585,65.918,92.342,64.3,92.342"/>
<path fill="#FFFFFF" d="M73.063,95.946c-0.524,0-0.89,0.396-0.89,0.89c0,0.494,0.365,0.891,0.89,0.891
	c0.525,0,0.89-0.396,0.89-0.891C73.952,96.343,73.588,95.946,73.063,95.946"/>
<path fill-rule="evenodd" clip-rule="evenodd" fill="#FFFFFF" d="M76.997,93.714c0.761,0,1.265,0.495,1.265,1.363
	c0,0.869-0.504,1.362-1.265,1.362c-0.762,0-1.266-0.493-1.266-1.362C75.731,94.209,76.235,93.714,76.997,93.714 M76.997,92.342
	c-1.62,0-2.641,1.243-2.641,2.735c0,1.491,1.021,2.735,2.641,2.735c1.619,0,2.64-1.244,2.64-2.735
	C79.637,93.585,78.616,92.342,76.997,92.342"/>
<path fill="#FFFFFF" d="M81.395,97.684v-2.552c0-0.795,0.45-1.267,1.137-1.267h0.333v-1.46h-0.289c-0.58,0-1.085,0.376-1.321,1.052
	h-0.02V92.47h-1.299v5.214H81.395z"/>
<path fill="#FFFFFF" d="M83.512,99.734c0.526,0.192,1.105,0.267,1.663,0.267c1.813,0,2.724-0.912,2.724-2.703v-2.521
	c0-1.288-1.158-2.436-2.541-2.436c-1.589,0-2.544,1.147-2.544,2.671s0.955,2.628,2.544,2.628c0.183,0,0.482-0.043,0.761-0.139
	v-1.426c-0.204,0.063-0.418,0.127-0.761,0.127c-0.677,0-1.17-0.461-1.17-1.212s0.493-1.256,1.17-1.256
	c0.557,0,1.169,0.375,1.169,1.224v2.555c0,0.954-0.729,1.115-1.385,1.115c-0.59,0-1.071-0.088-1.63-0.302V99.734z"/>
<path fill="#FFFFFF" d="M89.39,95.946c-0.525,0-0.892,0.396-0.892,0.89c0,0.494,0.366,0.891,0.892,0.891
	c0.526,0,0.891-0.396,0.891-0.891C90.28,96.343,89.916,95.946,89.39,95.946"/>
<path fill="#FFFFFF" d="M90.867,92.47v3.606c0,1.136,0.879,1.736,2.156,1.736c1.276,0,2.156-0.601,2.156-1.736V92.47h-1.373v3.132
	c0,0.537-0.278,0.838-0.783,0.838c-0.503,0-0.782-0.301-0.782-0.838V92.47H90.867z"/>
<path fill="#FFFFFF" d="M98.305,92.459h1.398c0,1.323-0.975,2.421-2.244,2.616c1.27,0.194,2.244,1.293,2.244,2.616h-1.398
	c0-0.688-0.561-1.246-1.247-1.246l-0.001,1.273h-1.4c0.007-2.052,0.007-4.511,0.001-7.375h1.399v3.361
	C97.744,93.705,98.305,93.146,98.305,92.459"/>
<path fill="#FFFFFF" d="M49.333,95.086c0,0.684,0.556,1.24,1.24,1.24c0.684,0,1.238-0.557,1.238-1.24s-0.555-1.24-1.238-1.24
	C49.889,93.846,49.333,94.402,49.333,95.086 M49.333,92.764c0.37-0.196,0.792-0.31,1.24-0.31c1.451,0,2.634,1.182,2.634,2.632
	c0,1.452-1.183,2.634-2.634,2.634s-2.634-1.182-2.634-2.634v-4.742h1.394V92.764z"/>
<path fill="#FFFFFF" d="M70.032,92.459h1.4c0,1.323-0.975,2.421-2.244,2.616c1.269,0.194,2.244,1.293,2.244,2.616h-1.399
	c0-0.688-0.561-1.246-1.249-1.246v1.273h-1.4c0.007-2.052,0.008-4.511,0.001-7.375h1.399v3.361
	C69.471,93.705,70.032,93.146,70.032,92.459"/>
<path fill="#FFFFFF" d="M81.516,64.088c-11.15,11.151-27.635,13.715-41.239,7.693c-1.302-0.576-2.579-1.232-3.822-1.965
	c-4.999-2.183-10.002-2.465-15.917,2.93c-1.651,1.673-1.611,3.07-1.014,4.463c2.296,3.828,1.793,8.866-1.506,12.167
	c-3.893,3.894-10.205,3.894-14.098,0c-3.893-3.893-3.893-10.204,0-14.096c2.997-2.998,7.428-3.688,11.085-2.069
	c0.351,0.155,0.695,0.333,1.029,0.529c1.238,0.539,2.466,0.618,3.853-0.682c5.899-6.117,5.777-11.03,3.579-16.149
	c-8.535-14.245-6.664-32.984,5.61-45.26c14.481-14.481,37.958-14.481,52.44-0.001C95.995,26.129,95.998,49.607,81.516,64.088
	 M77.618,34.198c0,1.551-1.263,2.813-2.813,2.813c0,0-0.001-7.548-0.001-7.582h-3.156c0.014,6.46,0.013,12.005-0.003,16.635h3.16
	l0.001-2.874c1.552,0,2.813,1.262,2.813,2.811h3.157c0-2.982-2.199-5.463-5.062-5.901c2.862-0.439,5.062-2.918,5.062-5.902H77.618z
	 M33.621,40.184c0-1.55,1.261-2.812,2.813-2.812c1.549,0,2.81,1.262,2.81,2.812c0,1.551-1.26,2.812-2.81,2.812
	C34.882,42.996,33.621,41.735,33.621,40.184 M33.621,34.918v-5.489H30.46v10.755c0,3.292,2.68,5.972,5.973,5.972
	c3.292,0,5.969-2.679,5.969-5.972c0-3.292-2.677-5.97-5.969-5.97C35.417,34.214,34.459,34.469,33.621,34.918 M48.394,34.214
	c-1.017,0-1.974,0.255-2.813,0.704v-0.704h-3.16v5.97v5.914h3.16v-5.914c0-1.55,1.263-2.812,2.813-2.812V34.214z M59.706,40.15
	c0,3.292,2.681,5.971,5.971,5.971c3.294,0,5.971-2.679,5.971-5.971c0-3.292-2.677-5.971-5.971-5.971
	C62.387,34.179,59.706,36.858,59.706,40.15 M62.866,40.15c0,1.551,1.262,2.812,2.811,2.812c1.551,0,2.813-1.261,2.813-2.812
	c0-1.551-1.263-2.812-2.813-2.812C64.128,37.338,62.866,38.599,62.866,40.15 M47.734,40.167c0,3.293,2.678,5.972,5.971,5.972
	s5.972-2.679,5.972-5.972c0-3.292-2.679-5.97-5.972-5.97S47.734,36.875,47.734,40.167 M50.894,40.167
	c0,1.551,1.261,2.813,2.812,2.813s2.811-1.262,2.811-2.813c0-1.55-1.26-2.812-2.811-2.812S50.894,38.617,50.894,40.167"/>
</svg>
